<?xml version="1.0" encoding="UTF-8"?>
<svg version="1.1" xmlns="http://www.w3.org/2000/svg" width="489" height="489">
<path d="M0 0 C161.37 0 322.74 0 489 0 C489 161.37 489 322.74 489 489 C327.63 489 166.26 489 0 489 C0 327.63 0 166.26 0 0 Z " fill="#0A0A11" transform="translate(0,0)"/>
<path d="M0 0 C10.17162401 -0.0466227 20.34322202 -0.08201976 30.51493168 -0.10362434 C35.23956679 -0.11400061 39.96412807 -0.12804535 44.6887207 -0.15087891 C49.25991464 -0.17282938 53.83103817 -0.18461474 58.40228081 -0.18975449 C60.13432356 -0.19341084 61.86636307 -0.20054889 63.59837532 -0.21146011 C79.02372969 -0.3046492 93.32879232 0.72724566 108 6 C108.95003906 6.33644531 109.90007812 6.67289063 110.87890625 7.01953125 C125.97970219 12.83385132 138.78349344 21.42685399 150 33 C150.84304687 33.85722656 151.68609375 34.71445313 152.5546875 35.59765625 C160.78294747 44.33845093 166.32773415 54.0064333 171 65 C171.309375 65.66 171.61875 66.32 171.9375 67 C173.78438211 70.97789994 174.47967077 74.66392312 175 79 C175.33 79.33 175.66 79.66 176 80 C178.00407226 87.85947296 178.35193993 95.67736379 178.3125 103.75 C178.30976074 104.88800049 178.30702148 106.02600098 178.30419922 107.19848633 C178.19772032 115.79696316 177.31933393 123.69082661 175 132 C174.67128906 133.20140625 174.34257812 134.4028125 174.00390625 135.640625 C172.70617088 139.98324141 170.93328428 143.9091947 169 148 C168.51660156 149.06605469 168.03320312 150.13210938 167.53515625 151.23046875 C158.44731147 170.49669969 143.94044987 185.67038934 126 197 C125.07832031 197.60972656 124.15664062 198.21945312 123.20703125 198.84765625 C118.40503643 201.92064234 114.72974457 203.75088067 109 204 C109 204.66 109 205.32 109 206 C97.7992891 210.23584433 86.85067852 212.48046715 75 214 C73.90743896 214.17490967 72.81487793 214.34981934 71.68920898 214.5300293 C65.01843999 215.35509111 58.27250491 215.12246709 51.5625 215.09765625 C50.07177783 215.09578823 48.58105504 215.09436614 47.09033203 215.09336853 C43.19088 215.08957356 39.29146596 215.0797695 35.39202881 215.06866455 C31.40328485 215.05838507 27.41453467 215.05385698 23.42578125 215.04882812 C15.61717029 215.03814416 7.80859049 215.02110456 0 215 C-0.06364267 205.88436611 0.27347083 197.0031136 1.25 187.9375 C1.35957031 186.74189453 1.46914062 185.54628906 1.58203125 184.31445312 C1.70449219 183.16783203 1.82695313 182.02121094 1.953125 180.83984375 C2.05786133 179.81238037 2.16259766 178.78491699 2.27050781 177.72631836 C3.14968585 174.4405817 4.40243411 173.14092883 7 171 C9.62631858 169.68684071 11.58379156 169.86816921 14.52514648 169.8581543 C15.68493515 169.85111984 16.84472382 169.84408539 18.03965759 169.83683777 C19.93621849 169.83059135 19.93621849 169.83059135 21.87109375 169.82421875 C23.86832357 169.80694742 25.86555347 169.78965104 27.86277103 169.77101612 C32.77998165 169.72570792 37.6970951 169.68792574 42.61450195 169.67407227 C58.47981127 169.62272434 73.58214814 169.13691239 89 165 C90.66357854 164.6515817 92.32897392 164.31074225 94 164 C94 163.34 94 162.68 94 162 C95.12535156 161.50693359 95.12535156 161.50693359 96.2734375 161.00390625 C110.30110563 154.48475066 122.00061041 143.46483554 128 129 C128.94575358 125.94919277 129.6297064 122.881734 130.25 119.75 C130.41910889 118.91807129 130.58821777 118.08614258 130.76245117 117.22900391 C132.00582644 110.75541858 132.50073326 104.58964968 132 98 C131.93425781 96.78957031 131.93425781 96.78957031 131.8671875 95.5546875 C131.45577259 90.27784408 130.05972189 85.84934522 128 81 C127.5875 79.865625 127.175 78.73125 126.75 77.5625 C124.42294977 72.8252906 121.41312172 69.00453947 118 65 C117.47535156 64.37867188 116.95070313 63.75734375 116.41015625 63.1171875 C106.79086335 52.62768961 92.11618892 46.656666 78.0847168 45.74584961 C73.53708614 45.55950896 68.98786266 45.46548883 64.4375 45.375 C62.84047517 45.33674791 61.24346939 45.29769218 59.64648438 45.2578125 C55.76448049 45.16260319 51.88238044 45.07829048 48 45 C48.01665459 46.97530952 48.01665459 46.97530952 48.03364563 48.99052429 C48.13495902 61.39460108 48.20993564 73.79859403 48.25906086 86.20299053 C48.28516568 92.5804079 48.32058109 98.95749152 48.37719727 105.3347168 C48.43148365 111.48795163 48.46141387 117.64086525 48.47438622 123.79432106 C48.48363202 126.14312612 48.50168678 128.4919134 48.52865028 130.84058189 C48.56489427 134.12807723 48.56994709 137.41424164 48.56762695 140.7019043 C48.58560333 141.6751062 48.60357971 142.64830811 48.62210083 143.65100098 C48.58622087 148.3427592 48.55096935 150.31353629 45.52702332 154.08113098 C44.69310562 154.71435776 43.85918793 155.34758453 43 156 C42.67 156.33 42.34 156.66 42 157 C37.48590359 157.28447471 32.95947406 157.23193919 28.4375 157.25 C27.17357422 157.270625 25.90964844 157.29125 24.60742188 157.3125 C17.75394066 157.34116066 12.08582018 157.32874826 6 154 C1.83764132 149.28237794 2.57418393 143.60963005 2.59936523 137.67407227 C2.59238617 136.52849854 2.5854071 135.3829248 2.57821655 134.20263672 C2.55819401 130.40715219 2.5587397 126.61193902 2.55859375 122.81640625 C2.54681395 120.16338476 2.53368282 117.51040734 2.51856995 114.85740662 C2.4813945 107.85429191 2.46211696 100.85121489 2.44702148 93.84802246 C2.42443959 83.37181411 2.38948306 72.89567588 2.33519894 62.41958278 C2.3124907 57.88390493 2.30554005 53.34836469 2.30210876 48.81263733 C2.26294648 35.9165786 1.80591694 23.22434432 0.426651 10.39854431 C0.0569066 6.91620554 -0.08953268 3.50590537 0 0 Z " fill="#3CD9F5" transform="translate(103,139)"/>
<path d="M0 0 C0.99 1.98 1.98 3.96 3 6 C3.66 6 4.32 6 5 6 C7.4672293 11.70331609 9.34208036 16.81555542 10 23 C10.33 23.33 10.66 23.66 11 24 C13.00407226 31.85947296 13.35193993 39.67736379 13.3125 47.75 C13.30976074 48.88800049 13.30702148 50.02600098 13.30419922 51.19848633 C13.19772032 59.79696316 12.31933393 67.69082661 10 76 C9.50693359 77.80210937 9.50693359 77.80210937 9.00390625 79.640625 C7.70617088 83.98324141 5.93328428 87.9091947 4 92 C3.27490234 93.59908203 3.27490234 93.59908203 2.53515625 95.23046875 C-6.55268853 114.49669969 -21.05955013 129.67038934 -39 141 C-39.92167969 141.60972656 -40.84335938 142.21945312 -41.79296875 142.84765625 C-46.59496357 145.92064234 -50.27025543 147.75088067 -56 148 C-56 148.66 -56 149.32 -56 150 C-67.2007109 154.23584433 -78.14932148 156.48046715 -90 158 C-91.09256104 158.17490967 -92.18512207 158.34981934 -93.31079102 158.5300293 C-99.98156001 159.35509111 -106.72749509 159.12246709 -113.4375 159.09765625 C-114.92822217 159.09578823 -116.41894496 159.09436614 -117.90966797 159.09336853 C-121.80912 159.08957356 -125.70853404 159.0797695 -129.60797119 159.06866455 C-133.59671515 159.05838507 -137.58546533 159.05385698 -141.57421875 159.04882812 C-149.38282971 159.03814416 -157.19140951 159.02110456 -165 159 C-165.06364267 149.88436611 -164.72652917 141.0031136 -163.75 131.9375 C-163.64042969 130.74189453 -163.53085938 129.54628906 -163.41796875 128.31445312 C-163.29550781 127.16783203 -163.17304688 126.02121094 -163.046875 124.83984375 C-162.94213867 123.81238037 -162.83740234 122.78491699 -162.72949219 121.72631836 C-161.85031415 118.4405817 -160.59756589 117.14092883 -158 115 C-155.37368142 113.68684071 -153.41620844 113.86816921 -150.47485352 113.8581543 C-149.31506485 113.85111984 -148.15527618 113.84408539 -146.96034241 113.83683777 C-145.06378151 113.83059135 -145.06378151 113.83059135 -143.12890625 113.82421875 C-141.13167643 113.80694742 -139.13444653 113.78965104 -137.13722897 113.77101612 C-132.22001835 113.72570792 -127.3029049 113.68792574 -122.38549805 113.67407227 C-106.52018873 113.62272434 -91.41785186 113.13691239 -76 109 C-74.33642146 108.6515817 -72.67102608 108.31074225 -71 108 C-71 107.34 -71 106.68 -71 106 C-70.24976563 105.67128906 -69.49953125 105.34257812 -68.7265625 105.00390625 C-54.69889437 98.48475066 -42.99938959 87.46483554 -37 73 C-36.05424642 69.94919277 -35.3702936 66.881734 -34.75 63.75 C-34.58089111 62.91807129 -34.41178223 62.08614258 -34.23754883 61.22900391 C-32.26921724 50.98096152 -32.40126949 40.79381122 -34.5 30.5625 C-35.30951397 26.41374091 -35.61609567 22.20661129 -36 18 C-35.01 18 -34.02 18 -33 18 C-32.67 17.34 -32.34 16.68 -32 16 C-29.95475679 15.40494001 -27.90666043 15.04533219 -25.8125 14.66015625 C-25.214375 14.44230469 -24.61625 14.22445312 -24 14 C-23.67 13.01 -23.34 12.02 -23 11 C-21.0187415 10.27954236 -19.01495907 9.61998741 -17 9 C-15.32983484 8.00585407 -13.66279327 7.0064275 -12 6 C-10.66666667 5.66666667 -9.33333333 5.33333333 -8 5 C-7.67 4.34 -7.34 3.68 -7 3 C-6.34 3 -5.68 3 -5 3 C-5 2.34 -5 1.68 -5 1 C-3 0 -3 0 0 0 Z " fill="#5C57EA" transform="translate(268,195)"/>
<path d="M0 0 C25.39928478 -0.89176459 47.33837579 -1.13123232 67.69921875 16.3125 C79.14233021 26.98589544 86.09365934 41.21495098 87.03515625 56.921875 C86.83163612 74.74119314 82.28280148 90.755838 69.96484375 104.125 C63.06005675 110.71406115 55.02184345 115.01317655 46 118 C45.27496277 118.24869843 44.54992554 118.49739685 43.80291748 118.75363159 C33.42943889 121.84596197 22.97471057 121.43499235 12.2578125 121.3984375 C10.15941263 121.40046178 8.06101345 121.40337616 5.96261597 121.40713501 C1.58698765 121.41153582 -2.78845581 121.405196 -7.1640625 121.39111328 C-12.76604727 121.37395903 -18.36760274 121.38391626 -23.96957207 121.40183067 C-28.29331699 121.41267501 -32.61696016 121.40922025 -36.94070816 121.4014473 C-39.00673601 121.39945039 -41.07277318 121.40188661 -43.13879013 121.40888596 C-46.02230077 121.4165181 -48.90511535 121.40487418 -51.78857422 121.38818359 C-52.63647018 121.39425629 -53.48436615 121.40032898 -54.35795593 121.40658569 C-59.32623263 121.3534013 -62.64221741 120.65271835 -67 118 C-67 117.01 -67 116.02 -67 115 C-66.06994141 114.54173828 -66.06994141 114.54173828 -65.12109375 114.07421875 C-52.34359747 107.47158239 -34.73165559 96.95564705 -27.82835388 83.76048279 C-24.47505155 77.48372102 -24.47505155 77.48372102 -20.54936218 76.1963501 C-17.51188326 75.92763295 -14.58660337 75.93617953 -11.5390625 76.04296875 C-9.88225967 76.04300652 -9.88225967 76.04300652 -8.19198608 76.04304504 C-4.66787835 76.04893935 -1.14830557 76.11453926 2.375 76.1875 C5.89038778 76.23400876 9.40488094 76.26740283 12.92056274 76.27839661 C15.10451471 76.28788842 17.28851316 76.31894058 19.47177124 76.37480164 C27.28581408 76.44763208 32.40130747 74.87895402 38.5 70 C40.88388259 65.23223482 40.77115838 60.22442437 40 55 C37.54715223 49.88990047 34.95520143 48.43413403 30 46 C26.3258711 44.77916603 22.67769236 44.79403216 18.828125 44.68359375 C18.1457074 44.66281265 17.46328979 44.64203156 16.76019287 44.62062073 C14.59022644 44.55547948 12.42014376 44.49640596 10.25 44.4375 C8.77472779 44.39428103 7.29946713 44.35066568 5.82421875 44.30664062 C2.21626834 44.19983482 -1.39181133 44.09846847 -5 44 C-4.4553231 39.22921392 -3.91473806 35.42783177 -2 31 C-1.10051446 27.2567968 -0.81609949 23.66688524 -0.68359375 19.82421875 C-0.64169922 18.66728516 -0.59980469 17.51035156 -0.55664062 16.31835938 C-0.51732422 15.12017578 -0.47800781 13.92199219 -0.4375 12.6875 C-0.37272461 10.8612207 -0.37272461 10.8612207 -0.30664062 8.99804688 C-0.20078504 5.9988053 -0.09870274 2.99948409 0 0 Z " fill="#B02EBE" transform="translate(293,234)"/>
<path d="M0 0 C1.52636078 -0.00856522 1.52636078 -0.00856522 3.08355713 -0.01730347 C4.19425568 -0.01842133 5.30495422 -0.01953918 6.4493103 -0.02069092 C7.62376709 -0.02565582 8.79822388 -0.03062073 10.00827026 -0.03573608 C13.22761632 -0.04783346 16.44692609 -0.0553005 19.66629076 -0.05974674 C21.68119999 -0.06268304 23.69610359 -0.066789 25.71100998 -0.07125092 C32.0253435 -0.08492199 38.33966408 -0.09458928 44.65401137 -0.09845281 C51.92347842 -0.10292599 59.19275673 -0.1204409 66.46216643 -0.1494534 C72.09293388 -0.17113923 77.72364853 -0.18116083 83.35445726 -0.18249393 C86.71166352 -0.18353749 90.06855179 -0.19081507 93.42573929 -0.20731354 C97.17853174 -0.22443628 100.93086925 -0.22247797 104.6836853 -0.21600342 C105.78223846 -0.2252182 106.88079163 -0.23443298 108.01263428 -0.243927 C123.43209154 -0.16091694 123.43209154 -0.16091694 128.72486305 4.79944992 C133.23548826 10.51253809 132.51671827 17.25361679 131.9546814 24.14044189 C131.87854614 25.11666504 131.87854614 25.11666504 131.8008728 26.11260986 C130.69705483 39.222425 130.69705483 39.222425 125.9546814 44.14044189 C122.19845995 46.64458952 119.14659471 46.50764518 114.78646851 46.58966064 C113.53706482 46.62383087 113.53706482 46.62383087 112.26242065 46.65869141 C103.54589767 46.88005897 94.82601049 46.97487259 86.10726929 47.06036377 C81.97471397 47.10487146 77.84578513 47.18830938 73.71469116 47.30645752 C68.71812771 47.44906393 63.72496656 47.52208112 58.72647285 47.54660034 C56.82800407 47.56733637 54.92963163 47.61203799 53.03233147 47.68179321 C38.56818795 48.18594529 38.56818795 48.18594529 34.18984604 44.75916481 C30.68139046 40.97474545 28.37309227 36.66595724 25.9546814 32.14044189 C24.01851037 29.69373918 21.94259721 27.4981441 19.7046814 25.32794189 C19.16730347 24.7993457 18.62992554 24.27074951 18.07626343 23.72613525 C9.31544025 15.39387182 -1.38520856 9.68805018 -12.0453186 4.14044189 C-8.55949034 0.1317394 -5.12364875 0.01726073 0 0 Z " fill="#4898F1" transform="translate(240.04531860351563,137.85955810546875)"/>
<path d="M0 0 C2 1 2 1 3.03515625 3.5546875 C8.48949075 21.18276478 8.24909649 38.96406824 -0.34765625 55.609375 C-9.24363566 71.26629876 -22.05634585 79.71693007 -39.23974609 84.55297852 C-46.69235118 86.38932879 -53.99450159 86.38006536 -61.609375 86.29296875 C-63.07195597 86.28735778 -64.53454267 86.2830948 -65.99713135 86.28010559 C-69.80460807 86.26877468 -73.61172904 86.23941248 -77.41906738 86.20599365 C-81.320996 86.1750357 -85.22298338 86.16154589 -89.125 86.14648438 C-96.75016034 86.11452841 -104.3750299 86.06347904 -112 86 C-112.33 85.34 -112.66 84.68 -113 84 C-109.12315913 82.80712589 -106.08378077 82 -102 82 C-102 81.34 -102 80.68 -102 80 C-99.83984375 78.4140625 -99.83984375 78.4140625 -96.9375 76.625 C-95.43123047 75.69107422 -95.43123047 75.69107422 -93.89453125 74.73828125 C-91.65448049 73.39304159 -89.4076469 72.08288663 -87.125 70.8125 C-83.99718499 69.11215561 -83.99718499 69.11215561 -81.5 66.9375 C-78.52461242 64.63157463 -75.47481077 63.41566365 -72 62 C-70.22776317 60.81850878 -68.45651219 59.63553267 -66.6875 58.44921875 C-50.74722838 48 -50.74722838 48 -45 48 C-44.773125 47.484375 -44.54625 46.96875 -44.3125 46.4375 C-42.51782382 43.10452995 -40.50034985 39.85296329 -38 37 C-37.34 37 -36.68 37 -36 37 C-35.773125 36.278125 -35.54625 35.55625 -35.3125 34.8125 C-33.72668125 31.41431697 -31.73876676 29.54769001 -29 27 C-28.13375 26.071875 -27.2675 25.14375 -26.375 24.1875 C-24 22 -24 22 -21 22 C-21 21.34 -21 20.68 -21 20 C-20.4225 19.773125 -19.845 19.54625 -19.25 19.3125 C-16.41025155 17.65598007 -14.98500033 15.60531294 -13 13 C-11.66666667 11.66666667 -10.33333333 10.33333333 -9 9 C-8.67 8.34 -8.34 7.68 -8 7 C-4.9375 6.375 -4.9375 6.375 -2 6 C-1.34 4.02 -0.68 2.04 0 0 Z " fill="#CF23A7" transform="translate(373,269)"/>
<path d="M0 0 C0.66 0.33 1.32 0.66 2 1 C2.99 0.67 3.98 0.34 5 0 C5.8904097 4.74294673 6.29882315 9.44552794 6.5390625 14.2578125 C6.60089218 15.48203415 6.60089218 15.48203415 6.66397095 16.73098755 C7.14131183 26.98982185 7.29424766 37.25214373 7.35009766 47.52099609 C7.36688608 49.78216681 7.39446301 52.04327991 7.43212891 54.30419922 C7.48667255 57.61713243 7.50870434 60.92886728 7.5234375 64.2421875 C7.54610687 65.250466 7.56877625 66.25874451 7.59213257 67.2975769 C7.57094349 74.28121386 7.57094349 74.28121386 4.52978516 78.10986328 C3.2775415 79.04548096 3.2775415 79.04548096 2 80 C1.67 80.33 1.34 80.66 1 81 C-3.51409641 81.28447471 -8.04052594 81.23193919 -12.5625 81.25 C-14.45838867 81.2809375 -14.45838867 81.2809375 -16.39257812 81.3125 C-23.24605934 81.34116066 -28.91417982 81.32874826 -35 78 C-37.98077799 74.10920222 -38.36833309 71.21273598 -38.34057617 66.3737793 C-38.34101425 65.72931351 -38.34145233 65.08484772 -38.34190369 64.42085266 C-38.3398249 62.30499254 -38.31653869 60.18993928 -38.29296875 58.07421875 C-38.28736952 56.60163302 -38.28310096 55.12904169 -38.28010559 53.65644836 C-38.26868248 49.79133521 -38.23923756 45.92656332 -38.20599365 42.06158447 C-38.17523783 38.11336889 -38.16158851 34.16509787 -38.14648438 30.21679688 C-38.11436504 22.47770945 -38.06319987 14.73890265 -38 7 C-37.67 7 -37.34 7 -37 7 C-36.67 11.95 -36.34 16.9 -36 22 C-35.34 22 -34.68 22 -34 22 C-33.649375 21.0925 -33.29875 20.185 -32.9375 19.25 C-29.46350547 13.42265434 -24.20858916 12.06952972 -18 10 C-15.36633161 8.71776578 -12.76616143 7.38347251 -10.171875 6.0234375 C-8 5 -8 5 -6 5 C-6 4.34 -6 3.68 -6 3 C-4.03533587 1.93224776 -2.03144641 0.93446535 0 0 Z " fill="#43BAF5" transform="translate(144,215)"/>
<path d="M0 0 C2 2 2 2 2.046875 4.2421875 C1.94890625 5.11101562 1.8509375 5.97984375 1.75 6.875 C1.66234375 7.73867188 1.5746875 8.60234375 1.484375 9.4921875 C0.99949865 12.00259572 0.16783398 13.74709194 -1 16 C-1.20625 17.2375 -1.4125 18.475 -1.625 19.75 C-6.1531216 41.73330003 -24.53772634 63.44565996 -42.625 75.875 C-44.73948833 77.26611074 -46.8639819 78.64217945 -49 80 C-49.92296875 80.61101562 -50.8459375 81.22203125 -51.796875 81.8515625 C-56.59822431 84.92151615 -60.27226207 86.75096792 -66 87 C-66 87.66 -66 88.32 -66 89 C-79.69844832 93.78532461 -91.37213651 96.35106872 -106 96 C-105 94 -105 94 -103.25 93.3125 C-100.36359975 91.62876652 -99.13803294 89.53583908 -97.28515625 86.8046875 C-93.70353046 81.77517043 -88.79596742 77.99711958 -83.8125 74.4375 C-81.74304526 72.9473914 -81.74304526 72.9473914 -80 70 C-78.20374473 68.39501266 -76.36532425 66.83666626 -74.5 65.3125 C-73.5203125 64.50425781 -72.540625 63.69601562 -71.53125 62.86328125 C-69 61 -69 61 -67 61 C-66.92007813 60.41605469 -66.84015625 59.83210938 -66.7578125 59.23046875 C-65.75935329 56.29170479 -64.27685825 55.25434133 -61.875 53.3125 C-57.73410318 49.8112003 -54.60890913 46.12191838 -51.5078125 41.6875 C-51.01023438 41.130625 -50.51265625 40.57375 -50 40 C-49.01 40 -48.02 40 -47 40 C-46.773125 39.443125 -46.54625 38.88625 -46.3125 38.3125 C-44.62449964 35.33840412 -42.53323483 33.27991135 -40 31 C-39.34 31 -38.68 31 -38 31 C-37.505 29.515 -37.505 29.515 -37 28 C-35.546875 26.7890625 -35.546875 26.7890625 -33.75 25.625 C-31.22990414 23.92251224 -29.37615024 22.37615024 -27.1875 20.1875 C-26.465625 19.465625 -25.74375 18.74375 -25 18 C-24.34 18 -23.68 18 -23 18 C-23 17.34 -23 16.68 -23 16 C-22.01 15.67 -21.02 15.34 -20 15 C-19.5875 14.54625 -19.175 14.0925 -18.75 13.625 C-17 12 -17 12 -13.625 10.5625 C-10.16424883 9.07079691 -7.90306287 7.33857843 -5 5 C-4.01 5 -3.02 5 -2 5 C-1.34 3.35 -0.68 1.7 0 0 Z " fill="#6D3BEB" transform="translate(278,256)"/>
<path d="M0 0 C3.08163389 0.98051987 6.05263551 1.30478832 9.265625 1.5546875 C20.90840604 2.70196884 30.10881376 13.183902 37.40625 21.765625 C43.14178622 29.13960214 48.15670489 36.60676275 50.40625 45.765625 C48.73958333 44.09895833 47.07291667 42.43229167 45.40625 40.765625 C43.33750966 40.1231015 43.33750966 40.1231015 41.40625 39.765625 C41.40625 40.425625 41.40625 41.085625 41.40625 41.765625 C40.74625 41.765625 40.08625 41.765625 39.40625 41.765625 C39.07625 42.755625 38.74625 43.745625 38.40625 44.765625 C36.62890625 45.64453125 36.62890625 45.64453125 34.46875 46.328125 C31.67774772 47.22469016 30.52850355 47.64337145 28.40625 49.765625 C27.74625 49.765625 27.08625 49.765625 26.40625 49.765625 C25.74625 50.425625 25.08625 51.085625 24.40625 51.765625 C24.07625 51.435625 23.74625 51.105625 23.40625 50.765625 C23.00792969 51.21550781 22.60960937 51.66539062 22.19921875 52.12890625 C20.15431176 53.99560784 18.26462469 54.88311969 15.71875 55.953125 C14.91050781 56.29730469 14.10226563 56.64148438 13.26953125 56.99609375 C12.65464844 57.25003906 12.03976563 57.50398438 11.40625 57.765625 C11.90125 62.220625 11.90125 62.220625 12.40625 66.765625 C9.40625 63.765625 9.40625 63.765625 8.15625 60.640625 C6.14776554 55.68217899 2.85048676 51.80667105 -0.59375 47.765625 C-1.11839844 47.14429688 -1.64304688 46.52296875 -2.18359375 45.8828125 C-11.20751534 36.04254592 -23.79259299 31.28437117 -36.59375 28.765625 C-36.59375 28.105625 -36.59375 27.445625 -36.59375 26.765625 C-37.25375 26.105625 -37.91375 25.445625 -38.59375 24.765625 C-34.55596945 20.43943155 -31.41467052 18.73577842 -25.59375 17.765625 C-25.59375 17.105625 -25.59375 16.445625 -25.59375 15.765625 C-24.93375 15.765625 -24.27375 15.765625 -23.59375 15.765625 C-23.34625 15.229375 -23.09875 14.693125 -22.84375 14.140625 C-19.74649068 8.25583229 -15.47818348 0.6553494 -9.28125 -2.359375 C-5.89509766 -2.20187954 -3.16784891 -1.1615446 0 0 Z " fill="#42B8F3" transform="translate(221.59375,156.234375)"/>
<path d="M0 0 C0.99 0.495 0.99 0.495 2 1 C-4.19958641 7.99896002 -11.06265511 13.02088504 -20 16 C-20.31839844 16.63679688 -20.63679688 17.27359375 -20.96484375 17.9296875 C-22.7805751 21.5611502 -26.33626987 22.6152342 -30 24 C-32.40040812 24.56812167 -34.776639 25.03794317 -37.21484375 25.41015625 C-37.80394531 25.60480469 -38.39304687 25.79945313 -39 26 C-39.495 27.485 -39.495 27.485 -40 29 C-41.9375 31.1875 -41.9375 31.1875 -44 33 C-44.66 33 -45.32 33 -46 33 C-46 33.99 -46 34.98 -46 36 C-46.99 36 -47.98 36 -49 36 C-49 36.99 -49 37.98 -49 39 C-49.66 39 -50.32 39 -51 39 C-51.495 39.99 -51.495 39.99 -52 41 C-56.5 44 -56.5 44 -59 44 C-59.33 44.99 -59.66 45.98 -60 47 C-60.639375 47.144375 -61.27875 47.28875 -61.9375 47.4375 C-62.618125 47.623125 -63.29875 47.80875 -64 48 C-64.268125 48.61875 -64.53625 49.2375 -64.8125 49.875 C-67.09153535 53.95327378 -72.13103555 54.72643712 -76.375 56.0625 C-79.14320686 56.70982592 -79.14320686 56.70982592 -80 59 C-81.99371825 60.34270821 -83.9934562 61.67653494 -86 63 C-86 63.33 -86 63.66 -86 64 C-89.57350041 64.81898622 -92.85659479 65.11811958 -96.51953125 65.09765625 C-98.0519043 65.09282227 -98.0519043 65.09282227 -99.61523438 65.08789062 C-100.67033203 65.07951172 -101.72542969 65.07113281 -102.8125 65.0625 C-103.88693359 65.05798828 -104.96136719 65.05347656 -106.06835938 65.04882812 C-108.71229683 65.03707729 -111.35611952 65.02064787 -114 65 C-114.18028323 56.25025394 -113.68028612 47.69865472 -112.75 39 C-112.64042969 37.79988281 -112.53085938 36.59976563 -112.41796875 35.36328125 C-112.29550781 34.21214844 -112.17304687 33.06101562 -112.046875 31.875 C-111.94213867 30.84117187 -111.83740234 29.80734375 -111.72949219 28.7421875 C-110.85215167 25.44423279 -109.60744593 24.14629025 -107 22 C-104.37368142 20.68684071 -102.41620844 20.86816921 -99.47485352 20.8581543 C-98.31506485 20.85111984 -97.15527618 20.84408539 -95.96034241 20.83683777 C-94.06378151 20.83059135 -94.06378151 20.83059135 -92.12890625 20.82421875 C-90.13167643 20.80694742 -88.13444653 20.78965104 -86.13722897 20.77101612 C-81.22001835 20.72570792 -76.3029049 20.68792574 -71.38549805 20.67407227 C-55.52018873 20.62272434 -40.41785186 20.13691239 -25 16 C-23.33642146 15.6515817 -21.67102608 15.31074225 -20 15 C-20 14.34 -20 13.68 -20 13 C-19.2265625 12.64808594 -18.453125 12.29617188 -17.65625 11.93359375 C-10.86331493 8.71367527 -5.33787625 5.30647698 0 0 Z " fill="#5376EE" transform="translate(217,288)"/>
<path d="M0 0 C1.05670898 0.48968262 1.05670898 0.48968262 2.13476562 0.98925781 C6.23800612 2.92226587 10.27593907 4.95848393 14.28076172 7.08740234 C15.81616769 7.90241903 17.36249134 8.69679087 18.91015625 9.48828125 C65.54510228 33.87032225 98.47532773 77.17072199 114.3125 126.6875 C128.37211486 172.96594547 122.52579106 225.27620669 100.203125 267.9765625 C94.43677618 278.67727333 87.93693334 288.77719478 80 298 C80 293.9265168 82.058466 291.64322099 84.25 288.375 C102.61080975 259.88224949 114.9831791 225.2055068 115.203125 191.046875 C115.21013931 190.31305099 115.21715363 189.57922699 115.22438049 188.82316589 C115.24179554 186.4653808 115.24823369 184.10784707 115.25 181.75 C115.25067474 180.94354034 115.25134949 180.13708069 115.25204468 179.30618286 C115.23564674 166.97110144 114.73441878 155.07342781 112 143 C111.83371094 142.2359082 111.66742188 141.47181641 111.49609375 140.68457031 C105.83471525 115.30272339 95.12296915 92.08435348 80 71 C79.59620117 70.43249023 79.19240234 69.86498047 78.77636719 69.28027344 C66.55392971 52.32909117 51.13913215 37.87527093 34 26 C33.25669434 25.48211914 32.51338867 24.96423828 31.74755859 24.43066406 C20.57339612 16.75332362 9.05274491 10.94764751 -3.54541016 5.97045898 C-5.21642548 5.30979796 -6.88265368 4.636928 -8.54443359 3.95336914 C-13.79539909 1.80130933 -19.02691218 -0.0627838 -24.5 -1.5625 C-25.26119141 -1.77229492 -26.02238281 -1.98208984 -26.80664062 -2.19824219 C-35.09435782 -4.40444746 -43.49953666 -5.8902013 -52 -7 C-52.73331543 -7.09643799 -53.46663086 -7.19287598 -54.22216797 -7.29223633 C-61.84148254 -8.17598868 -69.46276729 -8.2009252 -77.125 -8.1875 C-77.81585693 -8.18656342 -78.50671387 -8.18562683 -79.21850586 -8.18466187 C-89.28796101 -8.15506469 -99.08776133 -7.93375926 -109 -6 C-109.88623047 -5.83338867 -110.77246094 -5.66677734 -111.68554688 -5.49511719 C-121.99995373 -3.52154099 -132.03823713 -1.54397163 -141.60546875 2.890625 C-143.78541082 3.90058185 -145.89568332 4.66716961 -148.1875 5.375 C-158.54396699 8.72006324 -168.78990755 12.84025714 -177.97265625 18.7109375 C-180.56312924 20.35805906 -183.22830621 21.68709242 -186 23 C-186 22.34 -186 21.68 -186 21 C-171.73281999 10.08980352 -154.16824326 1.15047298 -137 -4 C-135.99324219 -4.30679688 -134.98648438 -4.61359375 -133.94921875 -4.9296875 C-127.0711996 -6.87574226 -120.0464871 -8.30495667 -113.07617188 -9.87695312 C-111.94115234 -10.13541016 -110.80613281 -10.39386719 -109.63671875 -10.66015625 C-108.60248779 -10.89355713 -107.56825684 -11.12695801 -106.50268555 -11.36743164 C-104.02349574 -11.89891904 -104.02349574 -11.89891904 -102 -13 C-68.79404796 -17.97906227 -30.59712011 -14.21971939 0 0 Z " fill="#9667E7" transform="translate(310,64)"/>
<path d="M0 0 C0.495 0.99 0.495 0.99 1 2 C0.07543945 3.90429688 0.07543945 3.90429688 -1.38671875 6.21875 C-2.1765918 7.49492187 -2.1765918 7.49492187 -2.98242188 8.796875 C-4.09948016 10.56778985 -5.21666303 12.33862611 -6.33398438 14.109375 C-9.42470564 19.10236606 -11.95777506 23.96022276 -14.01342773 29.46118164 C-15.06110955 32.15725766 -16.27493588 34.73117825 -17.5234375 37.33984375 C-20.2383939 43.25479275 -21.98419757 49.2765555 -23.625 55.5625 C-23.91117188 56.60212891 -24.19734375 57.64175781 -24.4921875 58.71289062 C-28.67336799 74.42082552 -30.50322103 89.55584119 -30.39111328 105.7956543 C-30.37499046 108.56413854 -30.39108884 111.33116807 -30.41015625 114.09960938 C-30.42344755 125.38555639 -29.40999254 135.97696274 -27 147 C-26.81099121 147.88244385 -26.62198242 148.7648877 -26.42724609 149.67407227 C-25.98701105 151.62440567 -25.4966021 153.56325179 -25 155.5 C-24.690625 156.7271875 -24.38125 157.954375 -24.0625 159.21875 C-17.47544762 182.66090701 -6.41190548 205.10798683 9 224 C9.62575928 224.77585449 9.62575928 224.77585449 10.26416016 225.56738281 C20.88877623 238.69167699 32.46192103 249.91007452 46 260 C46.99515625 260.74378906 47.9903125 261.48757813 49.015625 262.25390625 C51.65769538 264.19855861 54.31853651 266.11012774 57 268 C57.80308594 268.5671875 58.60617188 269.134375 59.43359375 269.71875 C62.70678935 271.97079689 65.70261504 273.87299184 69.375 275.44140625 C72.86734641 276.94296467 75.9750708 278.70275895 79.25 280.625 C86.40785779 284.60671739 93.93533207 287.27930413 101.6875 289.875 C102.81510742 290.2560791 103.94271484 290.6371582 105.10449219 291.02978516 C111.50850012 293.1117889 117.76688303 294.64375132 124.43408203 295.60375977 C126.74634868 295.96083006 128.93155278 296.45194041 131.1875 297.0625 C138.27476017 298.80526889 145.39591438 299.15985284 152.671875 299.203125 C153.46818329 299.21018463 154.26449158 299.21724426 155.08493042 299.22451782 C193.2788397 299.48623775 225.76469564 292.37832708 260 275 C258.53550712 279.62361324 254.76164078 281.21922699 250.75 283.375 C250.02546631 283.76929199 249.30093262 284.16358398 248.55444336 284.56982422 C224.10540548 297.67889784 196.65886641 304.07126577 169 305 C168.3488623 305.02191406 167.69772461 305.04382813 167.02685547 305.06640625 C155.24062542 305.4064754 143.69460101 304.40503125 132 303 C130.95972656 302.87987549 130.95972656 302.87987549 129.8984375 302.75732422 C123.36820902 301.9914533 117.25519357 301.00934826 111.08203125 298.71875 C108.86175181 297.95227454 106.67642908 297.46415376 104.375 297 C100.31135499 296.14375701 96.78906815 294.72834687 93 293 C91.58461958 292.45498121 90.16779276 291.91371227 88.75 291.375 C83.53441474 289.29678987 78.45609924 286.94628605 73.375 284.5625 C72.57545898 284.19108887 71.77591797 283.81967773 70.95214844 283.43701172 C65.71982469 280.95905402 60.83715758 278.17661327 56 275 C55.37899414 274.5985376 54.75798828 274.1970752 54.11816406 273.78344727 C37.95566382 263.24241131 18.60355389 249.46537769 8 233 C8 232.34 8 231.68 8 231 C7.34 231 6.68 231 6 231 C4.06960996 228.55952272 2.27078786 226.11603743 0.5 223.5625 C-0.29869507 222.4185376 -0.29869507 222.4185376 -1.11352539 221.25146484 C-12.65184009 204.50811489 -20.67250902 187.52889381 -27.18505859 168.30981445 C-27.92036162 166.22572161 -28.73760073 164.19930127 -29.578125 162.15625 C-31.58924725 156.84266031 -32.28693871 151.28239715 -33.125 145.6875 C-33.37830078 144.09131836 -33.37830078 144.09131836 -33.63671875 142.46289062 C-35.94396149 127.5748164 -36.20462886 113.03752891 -36 98 C-35.99484375 96.76121094 -35.9896875 95.52242188 -35.984375 94.24609375 C-34.94963016 64.71891054 -21.51371973 21.51371973 0 0 Z " fill="#5AA6ED" transform="translate(72,135)"/>
<path d="M0 0 C15.73409238 -0.07023099 31.4681421 -0.12305695 47.20235252 -0.15543652 C54.50881582 -0.17087375 61.81518144 -0.19190272 69.12158203 -0.22631836 C75.49342023 -0.25631746 81.86518766 -0.27559783 88.23709452 -0.28226548 C91.60775115 -0.28616005 94.97820539 -0.29524624 98.34879684 -0.31719017 C102.12116112 -0.33904907 105.89310966 -0.3419633 109.66552734 -0.34057617 C111.32278336 -0.35675491 111.32278336 -0.35675491 113.01351929 -0.3732605 C128.46668402 -0.31199897 128.46668402 -0.31199897 133.7699337 4.65907001 C138.28113544 10.3716365 137.56201805 17.11340546 137 24 C136.92386475 24.97622314 136.92386475 24.97622314 136.84619141 25.97216797 C135.74237344 39.0819831 135.74237344 39.0819831 131 44 C127.03085988 46.64609341 123.58302845 46.28724882 118.9765625 46.265625 C117.63082657 46.26849518 117.63082657 46.26849518 116.25790405 46.27142334 C114.35308554 46.27278553 112.44825775 46.26908672 110.54345703 46.26074219 C107.6706769 46.25016813 104.79854025 46.26057071 101.92578125 46.2734375 C92.08803632 46.27985607 82.6699604 45.98974109 73 44 C73.64960693 43.70899414 74.29921387 43.41798828 74.96850586 43.11816406 C75.63889893 42.74916992 76.30929199 42.38017578 77 42 C77.35395266 40.67199157 77.68535364 39.33786642 78 38 C79.77734375 36.078125 79.77734375 36.078125 81.9375 34.25 C82.64777344 33.63640625 83.35804688 33.0228125 84.08984375 32.390625 C86 31 86 31 88 31 C88.495 29.515 88.495 29.515 89 28 C90.14328923 26.85671077 91.29117335 25.71754712 92.46484375 24.60546875 C95.0648099 21.88642018 97.2224399 18.81961051 99.44921875 15.79296875 C99.96097656 15.20128906 100.47273438 14.60960937 101 14 C101.66 14 102.32 14 103 14 C103.268125 13.401875 103.53625 12.80375 103.8125 12.1875 C105.03585242 9.93395607 105.97960332 8.57141964 108 7 C110.6875 6.3125 110.6875 6.3125 113 6 C113.33 5.01 113.66 4.02 114 3 C115.32 3 116.64 3 118 3 C118 2.34 118 1.68 118 1 C79.06 1 40.12 1 0 1 C0 0.67 0 0.34 0 0 Z " fill="#5854DD" transform="translate(235,138)"/>
<path d="M0 0 C37.04845057 -1.30076483 37.04845057 -1.30076483 53 6 C54.03132137 6.96766535 55.03508043 7.96610918 56 9 C56.5775 9.474375 57.155 9.94875 57.75 10.4375 C58.1625 10.953125 58.575 11.46875 59 12 C58.6875 14.1875 58.6875 14.1875 58 16 C57.030625 16.12375 56.06125 16.2475 55.0625 16.375 C54.051875 16.58125 53.04125 16.7875 52 17 C51.67 17.66 51.34 18.32 51 19 C48.7068617 19.84228734 46.38505043 20.46932939 44.03125 21.12109375 C43.02578125 21.55615234 43.02578125 21.55615234 42 22 C41.505 23.485 41.505 23.485 41 25 C39.17749023 26.36279297 39.17749023 26.36279297 36.80859375 27.7421875 C35.94556641 28.25136719 35.08253906 28.76054687 34.19335938 29.28515625 C33.28392578 29.80980469 32.37449219 30.33445312 31.4375 30.875 C29.66497452 31.91339696 27.89283441 32.95245203 26.12109375 33.9921875 C25.25814697 34.49500244 24.3952002 34.99781738 23.50610352 35.51586914 C20.53073842 37.27789977 17.61186721 39.11857215 14.70654297 40.9934082 C8.53931681 44.63110112 1.90396051 44.22472204 -5 44 C-4.51506631 39.23148541 -3.91040334 35.41780772 -2 31 C-1.10051446 27.2567968 -0.81609949 23.66688524 -0.68359375 19.82421875 C-0.64169922 18.66728516 -0.59980469 17.51035156 -0.55664062 16.31835938 C-0.51732422 15.12017578 -0.47800781 13.92199219 -0.4375 12.6875 C-0.39431641 11.46998047 -0.35113281 10.25246094 -0.30664062 8.99804688 C-0.20078504 5.9988053 -0.09870274 2.99948409 0 0 Z " fill="#8335C1" transform="translate(293,234)"/>
<path d="M0 0 C0.99 1.98 1.98 3.96 3 6 C3.66 6 4.32 6 5 6 C7.4672293 11.70331609 9.34208036 16.81555542 10 23 C10.33 23.33 10.66 23.66 11 24 C11.07205511 25.68608966 11.08386068 27.37500659 11.0625 29.0625 C11.05347656 29.98160156 11.04445313 30.90070313 11.03515625 31.84765625 C11.02355469 32.55792969 11.01195312 33.26820313 11 34 C10.34 33.01 9.68 32.02 9 31 C8.67 31.66 8.34 32.32 8 33 C6.35 33 4.7 33 3 33 C2.505 33.99 2.505 33.99 2 35 C0.04741237 36.08136579 -1.96159958 36.97696512 -3.9921875 37.90234375 C-6.06618625 38.90632051 -6.06618625 38.90632051 -7.5703125 40.62890625 C-9 42 -9 42 -12 42 C-12.0825 42.61875 -12.165 43.2375 -12.25 43.875 C-13 46 -13 46 -14.6875 47 C-15.8321875 47.495 -15.8321875 47.495 -17 48 C-18.03125 48.70125 -19.0625 49.4025 -20.125 50.125 C-23 52 -23 52 -25 52 C-25.4021875 53.423125 -25.4021875 53.423125 -25.8125 54.875 C-27 58 -27 58 -30 60 C-30 59.34 -30 58.68 -30 58 C-30.66 58 -31.32 58 -32 58 C-32.08302368 56.90328979 -32.08302368 56.90328979 -32.16772461 55.78442383 C-32.42116206 52.46020002 -32.6792831 49.13635583 -32.9375 45.8125 C-33.02451172 44.66201172 -33.11152344 43.51152344 -33.20117188 42.32617188 C-33.28818359 41.21435547 -33.37519531 40.10253906 -33.46484375 38.95703125 C-33.543396 37.93585205 -33.62194824 36.91467285 -33.70288086 35.86254883 C-33.98065244 33.18640109 -34.44271505 30.6297583 -35 28 C-35.20911144 26.23158847 -35.39701754 24.46052637 -35.5625 22.6875 C-35.64628906 21.80449219 -35.73007813 20.92148438 -35.81640625 20.01171875 C-35.87699219 19.34785156 -35.93757812 18.68398437 -36 18 C-35.01 18 -34.02 18 -33 18 C-32.67 17.34 -32.34 16.68 -32 16 C-29.95475679 15.40494001 -27.90666043 15.04533219 -25.8125 14.66015625 C-25.214375 14.44230469 -24.61625 14.22445312 -24 14 C-23.67 13.01 -23.34 12.02 -23 11 C-21.0187415 10.27954236 -19.01495907 9.61998741 -17 9 C-15.32983484 8.00585407 -13.66279327 7.0064275 -12 6 C-10 5.5 -10 5.5 -8 5 C-7.67 4.34 -7.34 3.68 -7 3 C-6.34 3 -5.68 3 -5 3 C-5 2.34 -5 1.68 -5 1 C-3 0 -3 0 0 0 Z " fill="#5375EC" transform="translate(268,195)"/>
<path d="M0 0 C10.30980483 -0.02320262 20.6196034 -0.04095544 30.92942905 -0.05181217 C35.71704088 -0.05702368 40.5046348 -0.06408982 45.29223633 -0.07543945 C49.91525892 -0.08632995 54.53826432 -0.09228989 59.16129875 -0.09487724 C60.92227384 -0.09672039 62.68324803 -0.10031958 64.44421577 -0.10573006 C66.91668839 -0.1130223 69.38909057 -0.1139875 71.86157227 -0.11352539 C72.58446442 -0.11712067 73.30735657 -0.12071594 74.05215454 -0.12442017 C78.48010302 -0.1155049 82.644948 0.28238866 87 1 C87 1.66 87 2.32 87 3 C85.02 3 83.04 3 81 3 C81 3.66 81 4.32 81 5 C65.98984584 5.69676765 51.02668695 6.15110635 36 6 C35.81050781 6.88171875 35.81050781 6.88171875 35.6171875 7.78125 C34.46743639 11.91453247 32.11922175 15.6655433 29.375 18.9375 C27.94143694 21.08784459 27.51537583 22.6298307 26.9375 25.125 C26 29 26 29 24 31 C23.525625 32.175625 23.05125 33.35125 22.5625 34.5625 C21.7890625 36.2640625 21.7890625 36.2640625 21 38 C18.24921116 38.91692961 16.64051087 39.10886083 13.8125 39.0625 C12.554375 39.041875 11.29625 39.02125 10 39 C9.34 41.97 8.68 44.94 8 48 C7.67 48 7.34 48 7 48 C6.67 46.35 6.34 44.7 6 43 C5.67 45.64 5.34 48.28 5 51 C4.67 51 4.34 51 4 51 C3.58448769 46.95197977 3.17605491 42.90330307 2.77319336 38.85400391 C2.57032132 36.82810444 2.36240989 34.80271154 2.15429688 32.77734375 C1.06073164 21.86655646 0.47395098 10.95384764 0 0 Z " fill="#7FF2F8" transform="translate(103,139)"/>
<path d="M0 0 C6.95357232 0.86757793 13.54326817 2.30872354 20.1875 4.5 C20.84693604 4.71358154 21.50637207 4.92716309 22.18579102 5.1472168 C26.87385107 6.74770213 26.87385107 6.74770213 28 9 C26.02 9 24.04 9 22 9 C22.495 9.99 22.495 9.99 23 11 C22.45835205 10.87375244 21.9167041 10.74750488 21.35864258 10.61743164 C15.82680371 9.35445202 10.29308823 8.31263403 4.6875 7.4375 C3.86660889 7.30819092 3.04571777 7.17888184 2.19995117 7.0456543 C-4.18126706 6.06734688 -10.55280365 5.37319101 -17 5 C-17.13019531 5.763125 -17.26039063 6.52625 -17.39453125 7.3125 C-18.81314364 13.60930852 -23.13992666 17.13177836 -28 21 C-28.9075 21.928125 -29.815 22.85625 -30.75 23.8125 C-33 26 -33 26 -35 26 C-35.20625 26.721875 -35.4125 27.44375 -35.625 28.1875 C-37.45122709 31.9229645 -39.74286807 33.43587487 -43 36 C-43.495 36.99 -43.495 36.99 -44 38 C-46.40844727 38.41064453 -46.40844727 38.41064453 -49.56640625 38.6328125 C-50.69111328 38.71660156 -51.81582031 38.80039063 -52.97460938 38.88671875 C-54.15861328 38.96535156 -55.34261719 39.04398438 -56.5625 39.125 C-57.75037109 39.21136719 -58.93824219 39.29773438 -60.16210938 39.38671875 C-63.10757419 39.59964392 -66.05339035 39.80366457 -69 40 C-68.67 40.99 -68.34 41.98 -68 43 C-71.465 45.475 -71.465 45.475 -75 48 C-75.33 47.67 -75.66 47.34 -76 47 C-76.66 53.6 -77.32 60.2 -78 67 C-79.32 66.67 -80.64 66.34 -82 66 C-82 67.65 -82 69.3 -82 71 C-82.33 71 -82.66 71 -83 71 C-83.02945031 67.68751922 -83.04694801 64.37507289 -83.0625 61.0625 C-83.07087891 60.13630859 -83.07925781 59.21011719 -83.08789062 58.25585938 C-83.10837786 52.41699697 -82.75429787 46.79086947 -82 41 C-81.34 41.33 -80.68 41.66 -80 42 C-79.67 42.99 -79.34 43.98 -79 45 C-78.87625 43.865625 -78.7525 42.73125 -78.625 41.5625 C-78.315625 39.7990625 -78.315625 39.7990625 -78 38 C-75.05933495 36.52966748 -72.25525674 37 -69 37 C-67.515 36.505 -67.515 36.505 -66 36 C-64.93347808 33.69631264 -63.93578995 31.35981813 -63 29 C-62.34 28.01 -61.68 27.02 -61 26 C-60.87625 24.865625 -60.7525 23.73125 -60.625 22.5625 C-59.88831153 18.3633757 -58.9682819 17.88582963 -56 15 C-54.18038052 11.7381253 -52.57630868 8.38518749 -51 5 C-35.98859814 4.0607391 -21.03852979 3.87932044 -6 4 C-6 3.34 -6 2.68 -6 2 C-4.02 2 -2.04 2 0 2 C0 1.34 0 0.68 0 0 Z " fill="#56E5F8" transform="translate(190,140)"/>
<path d="M0 0 C1.69270833 1.49739583 3.38541667 2.99479167 5.078125 4.4921875 C6.89132273 6.06307027 6.89132273 6.06307027 8.91796875 6.75390625 C12.25184295 8.74922683 13.97201699 11.84862659 16.0625 15.0625 C16.5064209 15.73482666 16.9503418 16.40715332 17.40771484 17.09985352 C20.50166197 21.91182544 22.62770488 26.41279844 24 32 C22.33333333 30.33333333 20.66666667 28.66666667 19 27 C16.93125966 26.3574765 16.93125966 26.3574765 15 26 C15 26.66 15 27.32 15 28 C14.34 28 13.68 28 13 28 C12.505 29.485 12.505 29.485 12 31 C10.22265625 31.87890625 10.22265625 31.87890625 8.0625 32.5625 C5.27149772 33.45906516 4.12225355 33.87774645 2 36 C1.34 36 0.68 36 0 36 C-0.66 36.66 -1.32 37.32 -2 38 C-2.495 37.505 -2.495 37.505 -3 37 C-3.39832031 37.44988281 -3.79664063 37.89976562 -4.20703125 38.36328125 C-6.25193824 40.22998284 -8.14162531 41.11749469 -10.6875 42.1875 C-11.49574219 42.53167969 -12.30398437 42.87585938 -13.13671875 43.23046875 C-13.75160156 43.48441406 -14.36648437 43.73835938 -15 44 C-14.67 46.97 -14.34 49.94 -14 53 C-17 50 -17 50 -18.25 46.875 C-20.80638808 40.54425883 -25.4653084 35.33337093 -30.4375 30.75 C-33 28 -33 28 -33.375 25.125 C-33.25125 24.42375 -33.1275 23.7225 -33 23 C-32.01 22.67 -31.02 22.34 -30 22 C-29.67 21.01 -29.34 20.02 -29 19 C-26.10441559 17.5522078 -24.25811062 17 -21 17 C-20.773125 16.071875 -20.54625 15.14375 -20.3125 14.1875 C-18.77297911 10.44866356 -17.50533113 9.79760571 -14 8 C-13.67 7.34 -13.34 6.68 -13 6 C-12.34 6 -11.68 6 -11 6 C-11 5.34 -11 4.68 -11 4 C-7.37 2.68 -3.74 1.36 0 0 Z " fill="#4798F0" transform="translate(248,170)"/>
<path d="M0 0 C0.87462891 0.00902344 1.74925781 0.01804688 2.65039062 0.02734375 C4.78788064 0.0507043 6.92522786 0.08656753 9.0625 0.125 C9.0625 0.785 9.0625 1.445 9.0625 2.125 C8.464375 2.228125 7.86625 2.33125 7.25 2.4375 C4.70818383 3.23635651 3.88873514 4.22571545 2.0625 6.125 C1.27875 6.57875 0.495 7.0325 -0.3125 7.5 C-6.61348911 11.40061231 -10.3804938 17.3914754 -14.45117188 23.39257812 C-15.56732048 25.00289939 -16.74746917 26.5684818 -17.9375 28.125 C-18.5975 28.125 -19.2575 28.125 -19.9375 28.125 C-21.62747323 29.76802953 -23.28966394 31.43971312 -24.9375 33.125 C-26.01194063 34.01089697 -27.09523976 34.88616918 -28.1875 35.75 C-31.14487266 37.89496366 -31.14487266 37.89496366 -31.9375 41.125 C-32.9275 41.62 -32.9275 41.62 -33.9375 42.125 C-32.27407163 43.78842837 -30.1549291 43.48548097 -27.875 43.6875 C-26.95589844 43.77128906 -26.03679687 43.85507813 -25.08984375 43.94140625 C-24.02443359 44.03228516 -24.02443359 44.03228516 -22.9375 44.125 C-22.9375 44.455 -22.9375 44.785 -22.9375 45.125 C-29.25421031 45.30266557 -35.57027563 45.42514437 -41.88891602 45.50952148 C-44.03759842 45.54469795 -46.18611359 45.59244851 -48.33422852 45.65307617 C-51.42506137 45.73811874 -54.51367849 45.77771588 -57.60546875 45.80859375 C-58.56398239 45.84472275 -59.52249603 45.88085175 -60.51005554 45.91807556 C-66.98846223 45.92187904 -66.98846223 45.92187904 -69.72329712 43.6255188 C-71.11947333 41.80405865 -72.17588787 40.29143071 -72.9375 38.125 C-72.6075 37.135 -72.2775 36.145 -71.9375 35.125 C-70.9475 35.125 -69.9575 35.125 -68.9375 35.125 C-66.76717524 33.68509377 -66.76717524 33.68509377 -64.9375 32.125 C-63.6175 33.775 -62.2975 35.425 -60.9375 37.125 C-60.298125 36.42375 -59.65875 35.7225 -59 35 C-55.96687917 31.93191524 -52.46888263 29.74154638 -48.828125 27.45703125 C-46.80522381 26.25511784 -46.80522381 26.25511784 -45.9375 24.125 C-44.9475 24.125 -43.9575 24.125 -42.9375 24.125 C-42.710625 23.42375 -42.48375 22.7225 -42.25 22 C-40.59908712 18.38371465 -38.6466165 16.03730024 -35.9375 13.125 C-35.2775 13.125 -34.6175 13.125 -33.9375 13.125 C-33.9375 12.465 -33.9375 11.805 -33.9375 11.125 C-33.2775 11.125 -32.6175 11.125 -31.9375 11.125 C-31.6075 10.135 -31.2775 9.145 -30.9375 8.125 C-26.54391642 5.57693124 -21.97889251 4.74689556 -16.9375 5.125 C-16.9375 4.135 -16.9375 3.145 -16.9375 2.125 C-11.16593962 0.13588693 -6.07507259 -0.1201155 0 0 Z " fill="#5375EB" transform="translate(343.9375,138.875)"/>
<path d="M0 0 C0.33 0 0.66 0 1 0 C1.33 19.14 1.66 38.28 2 58 C3.98 57.505 3.98 57.505 6 57 C6.495 54.03 6.495 54.03 7 51 C7.66 51.33 8.32 51.66 9 52 C11.01927511 51.39421747 13.02253397 50.73080266 15 50 C15 49.34 15 48.68 15 48 C15.66 48 16.32 48 17 48 C17 47.34 17 46.68 17 46 C18.46875 44.8515625 18.46875 44.8515625 20.5 43.625 C21.22316406 43.18800781 21.94632813 42.75101562 22.69140625 42.30078125 C24.90713933 41.05232251 27.14771893 39.91805433 29.4375 38.8125 C33.03423576 37.42685436 33.03423576 37.42685436 34 35 C34.66 35 35.32 35 36 35 C36 34.34 36 33.68 36 33 C36.66 33 37.32 33 38 33 C38.495 32.01 38.495 32.01 39 31 C41.0625 30.375 41.0625 30.375 43 30 C44.88512322 37.58801701 44.60479722 45.69910068 44.89599609 53.47314453 C44.98382588 55.60703734 45.10706877 57.7394287 45.23828125 59.87109375 C45.55340745 67.08298188 45.55340745 67.08298188 43.91796875 69.79296875 C42.5625 71.1875 42.5625 71.1875 40 73 C39.67 73.33 39.34 73.66 39 74 C34.48590359 74.28447471 29.95947406 74.23193919 25.4375 74.25 C23.54161133 74.2809375 23.54161133 74.2809375 21.60742188 74.3125 C14.75394066 74.34116066 9.08582018 74.32874826 3 71 C0.01922201 67.10920222 -0.36833309 64.21273598 -0.34057617 59.3737793 C-0.34101425 58.72931351 -0.34145233 58.08484772 -0.34190369 57.42085266 C-0.3398249 55.30499254 -0.31653869 53.18993928 -0.29296875 51.07421875 C-0.28736952 49.60163302 -0.28310096 48.12904169 -0.28010559 46.65644836 C-0.26868248 42.79133521 -0.23923756 38.92656332 -0.20599365 35.06158447 C-0.17523783 31.11336889 -0.16158851 27.16509787 -0.14648438 23.21679688 C-0.11436504 15.47770945 -0.06319987 7.73890265 0 0 Z " fill="#4797EE" transform="translate(106,222)"/>
<path d="M0 0 C2.33938012 0.93575205 3.72352831 1.57562562 5.1171875 3.71484375 C8.3300428 12.03130549 6.14459413 25.42162349 4 34 C1.86789309 37.17172929 0.18888701 38.87407533 -3 41 C-4.9172821 41.24050903 -4.9172821 41.24050903 -7.10424805 41.22705078 C-7.92487228 41.22689972 -8.74549652 41.22674866 -9.59098816 41.22659302 C-10.9129998 41.21110916 -10.9129998 41.21110916 -12.26171875 41.1953125 C-13.16751175 41.1924826 -14.07330475 41.18965271 -15.00654602 41.18673706 C-17.90033158 41.17553964 -20.79380794 41.15043589 -23.6875 41.125 C-25.64908407 41.11496963 -27.610673 41.10584388 -29.57226562 41.09765625 C-34.3816296 41.07560173 -39.19076237 41.04107489 -44 41 C-42.515 40.505 -42.515 40.505 -41 40 C-41 39.34 -41 38.68 -41 38 C-39.3125 36.703125 -39.3125 36.703125 -37 35.25 C-31.57031919 31.74422184 -26.20834708 28.20834708 -21.625 23.625 C-21.08875 23.08875 -20.5525 22.5525 -20 22 C-19.34 22 -18.68 22 -18 22 C-17.773125 21.4225 -17.54625 20.845 -17.3125 20.25 C-16 18 -16 18 -13.5625 16.0625 C-10.85972913 13.88709906 -9.71134449 11.97625129 -8 9 C-6.68799596 7.64567325 -5.35368596 6.31266518 -4 5 C-2.64843325 3.34808509 -1.31037934 1.68477344 0 0 Z " fill="#6E3AE9" transform="translate(366,143)"/>
<path d="M0 0 C0.75764648 0.33177246 1.51529297 0.66354492 2.29589844 1.00537109 C4.58715439 2.01593957 6.85853692 3.0601053 9.125 4.125 C9.80788086 4.43751709 10.49076172 4.75003418 11.19433594 5.07202148 C14.29849572 6.62046558 15.79008763 7.38084671 16.9296875 10.7421875 C16.95289063 11.48726562 16.97609375 12.23234375 17 13 C15 14 15 14 13.00390625 13.35083008 C12.19824219 12.99400146 11.39257812 12.63717285 10.5625 12.26953125 C9.21865234 11.68268555 9.21865234 11.68268555 7.84765625 11.08398438 C6.90792969 10.66439453 5.96820313 10.24480469 5 9.8125 C-9.47878228 3.39314538 -9.47878228 3.39314538 -24.5 -1.5625 C-25.26119141 -1.77229492 -26.02238281 -1.98208984 -26.80664062 -2.19824219 C-35.09435782 -4.40444746 -43.49953666 -5.8902013 -52 -7 C-52.73331543 -7.09643799 -53.46663086 -7.19287598 -54.22216797 -7.29223633 C-61.84148254 -8.17598868 -69.46276729 -8.2009252 -77.125 -8.1875 C-77.81585693 -8.18656342 -78.50671387 -8.18562683 -79.21850586 -8.18466187 C-89.28796101 -8.15506469 -99.08776133 -7.93375926 -109 -6 C-109.88623047 -5.83338867 -110.77246094 -5.66677734 -111.68554688 -5.49511719 C-121.99995373 -3.52154099 -132.03823713 -1.54397163 -141.60546875 2.890625 C-143.78541082 3.90058185 -145.89568332 4.66716961 -148.1875 5.375 C-158.54396699 8.72006324 -168.78990755 12.84025714 -177.97265625 18.7109375 C-180.56312924 20.35805906 -183.22830621 21.68709242 -186 23 C-186 22.34 -186 21.68 -186 21 C-171.73281999 10.08980352 -154.16824326 1.15047298 -137 -4 C-135.99324219 -4.30679688 -134.98648438 -4.61359375 -133.94921875 -4.9296875 C-127.0711996 -6.87574226 -120.0464871 -8.30495667 -113.07617188 -9.87695312 C-111.94115234 -10.13541016 -110.80613281 -10.39386719 -109.63671875 -10.66015625 C-108.60248779 -10.89355713 -107.56825684 -11.12695801 -106.50268555 -11.36743164 C-104.02349574 -11.89891904 -104.02349574 -11.89891904 -102 -13 C-68.63895973 -18.00231695 -30.78495675 -14.06490477 0 0 Z " fill="#50D9F3" transform="translate(310,64)"/>
<path d="M0 0 C0.99 0.33 1.98 0.66 3 1 C3.495 3.97 3.495 3.97 4 7 C4.66 7 5.32 7 6 7 C8.90155797 21.5695251 10.39121149 35.85880192 10.3125 50.6875 C10.31034485 51.42567963 10.3081897 52.16385925 10.30596924 52.92440796 C10.11331289 94.26478493 -3.78144243 136.37173199 -31 168 C-31 163.9265168 -28.941534 161.64322099 -26.75 158.375 C-8.38948893 129.882713 3.98395178 95.20514749 4.203125 61.046875 C4.21000336 60.31264313 4.21688171 59.57841125 4.22396851 58.82192993 C4.24104655 56.46456882 4.24742319 54.1074197 4.25 51.75 C4.25250763 50.54479706 4.25250763 50.54479706 4.25506592 49.31524658 C4.25660733 36.9626951 3.54006637 25.12080214 1 13 C0.77570313 11.90816406 0.55140625 10.81632813 0.3203125 9.69140625 C-0.01987474 8.04872131 -0.37614154 6.40904342 -0.765625 4.77734375 C-1 3 -1 3 0 0 Z " fill="#C043D5" transform="translate(421,194)"/>
<path d="M0 0 C0.84899872 -0.00043808 1.69799744 -0.00087616 2.57272339 -0.00132751 C5.38115371 0.00076382 8.18898831 0.02411103 10.99731445 0.04760742 C12.94358494 0.05320215 14.88985965 0.05747283 16.83613586 0.06047058 C21.96053721 0.07192904 27.08468375 0.10140488 32.20898438 0.13458252 C37.43722079 0.16526181 42.66549835 0.17897134 47.89379883 0.1940918 C58.15367644 0.22627358 68.41336489 0.27748207 78.6730957 0.34057617 C78.6730957 0.67057617 78.6730957 1.00057617 78.6730957 1.34057617 C77.76946289 1.46174805 76.86583008 1.58291992 75.93481445 1.70776367 C74.75532227 1.8753418 73.57583008 2.04291992 72.3605957 2.21557617 C70.60295898 2.45920898 70.60295898 2.45920898 68.80981445 2.70776367 C65.52778675 3.16358239 65.52778675 3.16358239 62.6730957 5.34057617 C60.37646484 5.68774414 60.37646484 5.68774414 57.70825195 5.83276367 C56.26095703 5.93137695 56.26095703 5.93137695 54.78442383 6.03198242 C52.75621858 6.1541165 50.72754634 6.26873376 48.69848633 6.37573242 C42.95740751 6.65091262 42.95740751 6.65091262 38.10668945 9.41088867 C37.63360352 10.04768555 37.16051758 10.68448242 36.6730957 11.34057617 C36.0130957 11.34057617 35.3530957 11.34057617 34.6730957 11.34057617 C34.6730957 12.00057617 34.6730957 12.66057617 34.6730957 13.34057617 C34.0130957 13.34057617 33.3530957 13.34057617 32.6730957 13.34057617 C32.6730957 14.00057617 32.6730957 14.66057617 32.6730957 15.34057617 C32.0130957 15.34057617 31.3530957 15.34057617 30.6730957 15.34057617 C30.1780957 17.81557617 30.1780957 17.81557617 29.6730957 20.34057617 C26.25661541 18.82126581 23.65905464 16.79612126 20.7980957 14.40307617 C14.74687551 9.52134509 10.67186812 6.75884727 2.6730957 7.34057617 C1.87645508 7.56100586 1.07981445 7.78143555 0.2590332 8.00854492 C-3.03684435 8.43173162 -4.33839722 7.61712528 -7.1394043 5.90307617 C-7.92959961 5.42999023 -8.71979492 4.9569043 -9.53393555 4.46948242 C-10.12561523 4.09694336 -10.71729492 3.7244043 -11.3269043 3.34057617 C-8.59208732 -0.78778462 -4.44380072 -0.05970895 0 0 Z " fill="#43B9F4" transform="translate(239.326904296875,138.659423828125)"/>
<path d="M0 0 C0 0.99 0 1.98 0 3 C-4.03441139 5.35141729 -8.08314494 7.67416037 -12.15429688 9.96142578 C-13.71649049 10.84046965 -15.27296341 11.72966825 -16.828125 12.62109375 C-49.8960288 30.46035764 -90.49377833 32.43010626 -127 28 C-127.70946777 27.91459961 -128.41893555 27.82919922 -129.14990234 27.74121094 C-141.80966221 26.17903394 -141.80966221 26.17903394 -147 24 C-147.33 23.01 -147.66 22.02 -148 21 C-141.79063414 18.93021138 -134.01161129 20.31758727 -127.75 22 C-120.71341135 23.87642364 -113.58234563 24.15998214 -106.328125 24.203125 C-105.53181671 24.21018463 -104.73550842 24.21724426 -103.91506958 24.22451782 C-66.5961045 24.48024228 -32.95181717 18.47765449 0 0 Z " fill="#9664E6" transform="translate(331,410)"/>
<path d="M0 0 C1.22111481 0.00007553 2.44222961 0.00015106 3.7003479 0.00022888 C5.03769979 0.00533587 6.37505127 0.01055187 7.71240234 0.01586914 C9.07717843 0.01773399 10.44195518 0.01915758 11.80673218 0.02015686 C15.40049077 0.02397676 18.99420902 0.03380256 22.58795166 0.04486084 C26.25442967 0.05508628 29.92091419 0.05965691 33.58740234 0.06469727 C40.78273325 0.07542529 47.97803089 0.0924954 55.17333984 0.11352539 C55.17333984 0.44352539 55.17333984 0.77352539 55.17333984 1.11352539 C54.17173828 1.17411133 53.17013672 1.23469727 52.13818359 1.29711914 C50.79572654 1.38160944 49.45327912 1.46625307 48.11083984 1.55102539 C46.79986328 1.63223633 45.48888672 1.71344727 44.13818359 1.79711914 C40.43670747 2.09250788 36.83963537 2.54617927 33.17333984 3.11352539 C33.17333984 3.77352539 33.17333984 4.43352539 33.17333984 5.11352539 C32.07662964 5.19654907 32.07662964 5.19654907 30.95776367 5.28125 C27.63353986 5.53468745 24.30969567 5.79280849 20.98583984 6.05102539 C19.26010742 6.18154297 19.26010742 6.18154297 17.49951172 6.31469727 C16.38769531 6.40170898 15.27587891 6.4887207 14.13037109 6.57836914 C13.10919189 6.65692139 12.0880127 6.73547363 11.03588867 6.81640625 C8.36195486 7.09394804 5.79754262 7.53809779 3.17333984 8.11352539 C3.17333984 8.77352539 3.17333984 9.43352539 3.17333984 10.11352539 C2.51333984 10.11352539 1.85333984 10.11352539 1.17333984 10.11352539 C0.84333984 11.76352539 0.51333984 13.41352539 0.17333984 15.11352539 C-1.00228516 15.20633789 -1.00228516 15.20633789 -2.20166016 15.30102539 C-3.06791016 15.56915039 -3.93416016 15.83727539 -4.82666016 16.11352539 C-6.08811783 18.47538678 -6.08811783 18.47538678 -6.82666016 21.11352539 C-7.48666016 22.10352539 -8.14666016 23.09352539 -8.82666016 24.11352539 C-9.48666016 24.11352539 -10.14666016 24.11352539 -10.82666016 24.11352539 C-11.48666016 27.41352539 -12.14666016 30.71352539 -12.82666016 34.11352539 C-14.82666016 32.11352539 -14.82666016 32.11352539 -14.84179688 29.47143555 C-14.47994117 25.89132895 -14.10630159 22.3140842 -13.70166016 18.73852539 C-13.52376953 16.87067383 -13.52376953 16.87067383 -13.34228516 14.96508789 C-13.14505859 13.17071289 -13.14505859 13.17071289 -12.94384766 11.34008789 C-12.82638184 10.2426123 -12.70891602 9.14513672 -12.58789062 8.0144043 C-11.69548551 4.61364816 -10.52401864 3.3097353 -7.82666016 1.11352539 C-5.12376708 -0.23792115 -3.02596209 -0.00622626 0 0 Z " fill="#479AF1" transform="translate(117.82666015625,308.886474609375)"/>
<path d="M0 0 C2.79143617 -0.01418773 5.48849325 0.11589741 8.26171875 0.421875 C5.2741558 6.15799586 1.66374694 10.69897004 -2.73828125 15.421875 C-3.52203125 16.2675 -4.30578125 17.113125 -5.11328125 17.984375 C-11.27601314 23.70691175 -17.81610182 28.21200421 -25.11328125 32.359375 C-25.81557861 32.76124023 -26.51787598 33.16310547 -27.24145508 33.57714844 C-32.3633246 36.421875 -32.3633246 36.421875 -35.73828125 36.421875 C-36.23328125 34.936875 -36.23328125 34.936875 -36.73828125 33.421875 C-33.61080785 30.12979773 -30.04718847 27.4247749 -26.44921875 24.66796875 C-18.68682565 18.65795536 -10.09962416 11.90406236 -5.23828125 3.234375 C-2.73828125 0.421875 -2.73828125 0.421875 0 0 Z " fill="#8535C1" transform="translate(271.73828125,312.578125)"/>
<path d="M0 0 C0.83071518 0.00141495 1.66143036 0.0028299 2.51731873 0.00428772 C5.1352825 0.00982455 7.75315642 0.02236463 10.37109375 0.03515625 C12.16080604 0.04017944 13.9505197 0.0447409 15.74023438 0.04882812 C20.09638808 0.05977317 24.45247575 0.07699306 28.80859375 0.09765625 C28.80859375 0.42765625 28.80859375 0.75765625 28.80859375 1.09765625 C27.14304443 1.13524048 27.14304443 1.13524048 25.44384766 1.17358398 C21.33256056 1.2676054 17.22144452 1.36783882 13.11035156 1.4699707 C11.32946772 1.51333955 9.54854177 1.55501319 7.76757812 1.5949707 C5.21080827 1.65262615 2.65425077 1.71633395 0.09765625 1.78125 C-0.70135101 1.79796249 -1.50035828 1.81467499 -2.32357788 1.83189392 C-6.38946993 1.85158616 -6.38946993 1.85158616 -10.19140625 3.09765625 C-9.69640625 4.58265625 -9.69640625 4.58265625 -9.19140625 6.09765625 C-10.07957031 6.18402344 -10.96773438 6.27039062 -11.8828125 6.359375 C-27.39015098 8.06502575 -43.54778681 10.38355368 -57.796875 16.98828125 C-59.97681707 17.9982381 -62.08708957 18.76482586 -64.37890625 19.47265625 C-74.73537324 22.81771949 -84.9813138 26.93791339 -94.1640625 32.80859375 C-96.75453549 34.45571531 -99.41971246 35.78474867 -102.19140625 37.09765625 C-102.19140625 36.43765625 -102.19140625 35.77765625 -102.19140625 35.09765625 C-87.92422624 24.18745977 -70.35964951 15.24812923 -53.19140625 10.09765625 C-52.18464844 9.79085937 -51.17789063 9.4840625 -50.140625 9.16796875 C-43.26260585 7.22191399 -36.23789335 5.79269958 -29.26757812 4.22070312 C-28.13255859 3.96224609 -26.99753906 3.70378906 -25.828125 3.4375 C-24.79389404 3.20409912 -23.75966309 2.97069824 -22.6940918 2.73022461 C-20.21490199 2.19873721 -20.21490199 2.19873721 -18.19140625 1.09765625 C-12.15935571 0.07215716 -6.10215606 -0.04013366 0 0 Z " fill="#42A4E4" transform="translate(226.19140625,49.90234375)"/>
<path d="M0 0 C19.14 0 38.28 0 58 0 C58 0.33 58 0.66 58 1 C56.78763672 1.05607422 56.78763672 1.05607422 55.55078125 1.11328125 C54.48214844 1.17902344 53.41351563 1.24476563 52.3125 1.3125 C51.25675781 1.37050781 50.20101562 1.42851562 49.11328125 1.48828125 C45.99472406 1.78217037 45.99472406 1.78217037 43.75317383 3.49072266 C40.31140296 5.37748576 37.7471704 5.48744658 33.8359375 5.66015625 C32.82510605 5.7132621 32.82510605 5.7132621 31.79385376 5.7674408 C29.6546357 5.87866179 27.51519236 5.97212026 25.375 6.0625 C23.22783359 6.15802051 21.08116376 6.25759477 18.9347229 6.36827087 C16.99261299 6.46782857 15.04977019 6.55276913 13.10693359 6.63696289 C9.83692105 6.78055173 9.83692105 6.78055173 7 9 C4.5567254 15.89058341 4.47227336 23.76676064 4 31 C1.92297962 27.88446944 1.67175688 26.71043222 1.3671875 23.10546875 C1.28339844 22.14962891 1.19960937 21.19378906 1.11328125 20.20898438 C1.03464844 19.21189453 0.95601563 18.21480469 0.875 17.1875 C0.78863281 16.20201172 0.70226562 15.21652344 0.61328125 14.20117188 C0.20905109 9.42419799 0 4.80906286 0 0 Z " fill="#BFF7FA" transform="translate(103,139)"/>
<path d="M0 0 C10.22002851 1.31871336 18.01901494 9.29599539 24.875 16.5 C24.875 17.16 24.875 17.82 24.875 18.5 C25.4525 18.685625 26.03 18.87125 26.625 19.0625 C29.97927843 21.20551122 31.05407996 23.98822563 32.875 27.5 C31.225 28.82 29.575 30.14 27.875 31.5 C23.44148792 29.35041839 20.86727613 26.34031478 17.734375 22.671875 C10.73043778 14.49080547 3.01221108 9.04392583 -6.125 3.5 C-3.95497434 1.05709686 -3.38407284 0.54145165 0 0 Z " fill="#408FCA" transform="translate(245.125,144.5)"/>
<path d="M0 0 C19.32233448 6.86109766 39.29703737 24.26486546 52 40 C49.50638429 38.79618552 47.31856917 37.54571278 45 36 C45 35.34 45 34.68 45 34 C44.34 34 43.68 34 43 34 C43.495 35.98 43.495 35.98 44 38 C44.66 38 45.32 38 46 38 C45.67 38.99 45.34 39.98 45 41 C44.40316406 40.35675781 43.80632812 39.71351562 43.19140625 39.05078125 C32.00494251 27.39890742 19.1857714 17.86465538 5.26904297 9.68945312 C0.22959701 6.61225869 0.22959701 6.61225869 -1.03125 3.25 C-1 1 -1 1 0 0 Z " fill="#728FEB" transform="translate(327,73)"/>
<path d="M0 0 C0.9662606 -0.00065712 0.9662606 -0.00065712 1.95204163 -0.00132751 C4.07877029 0.00076058 6.2047081 0.02409104 8.33129883 0.04760742 C9.80674305 0.05320334 11.28219286 0.05747346 12.75764465 0.06047058 C16.63922542 0.0719198 20.52046891 0.10138731 24.4019165 0.13458252 C28.36335691 0.16528193 32.32485186 0.17897562 36.28637695 0.1940918 C44.05801502 0.22625723 51.82937527 0.27745412 59.60083008 0.34057617 C59.60083008 0.67057617 59.60083008 1.00057617 59.60083008 1.34057617 C58.20960938 1.3781604 58.20960938 1.3781604 56.7902832 1.41650391 C53.31622469 1.51220979 49.84230088 1.61140527 46.3684082 1.71289062 C44.87105133 1.7559348 43.37365495 1.79762818 41.8762207 1.83789062 C39.71138651 1.89634115 37.54674574 1.9598107 35.38208008 2.02416992 C33.43398438 2.07915649 33.43398438 2.07915649 31.4465332 2.13525391 C27.44779865 2.34874653 23.56651748 2.79857318 19.60083008 3.34057617 C19.60083008 4.00057617 19.60083008 4.66057617 19.60083008 5.34057617 C16.51596804 6.36886352 13.96097806 6.61468055 10.72583008 6.84057617 C7.71120042 7.05212913 4.94269846 7.25006639 2.01879883 8.02416992 C-1.1605739 8.44021062 -2.50898953 7.55695522 -5.21166992 5.90307617 C-6.00186523 5.42999023 -6.79206055 4.9569043 -7.60620117 4.46948242 C-8.19788086 4.09694336 -8.78956055 3.7244043 -9.39916992 3.34057617 C-6.728576 -0.24929505 -4.29813049 -0.02456075 0 0 Z " fill="#52DFF5" transform="translate(237.399169921875,138.659423828125)"/>
<path d="M0 0 C11.11293175 1.50595804 21.93850406 6.24943413 32 11.0625 C32.68819824 11.37840088 33.37639648 11.69430176 34.08544922 12.01977539 C38.78028456 14.35641685 38.78028456 14.35641685 39.9375 17.74609375 C39.958125 18.48988281 39.97875 19.23367187 40 20 C38 21 38 21 36.00390625 20.35083008 C35.19824219 19.99400146 34.39257812 19.63717285 33.5625 19.26953125 C32.66660156 18.87830078 31.77070313 18.48707031 30.84765625 18.08398438 C29.43806641 17.45459961 29.43806641 17.45459961 28 16.8125 C26.16720379 16.00528976 24.33387149 15.19929562 22.5 14.39453125 C21.59169434 13.99540527 20.68338867 13.5962793 19.74755859 13.18505859 C13.59241585 10.5302636 7.39513755 8.01951712 1 6 C1.99 5.01 2.98 4.02 4 3 C3.34 3 2.68 3 2 3 C2 2.34 2 1.68 2 1 C1.34 0.67 0.68 0.34 0 0 Z " fill="#51CAE9" transform="translate(287,57)"/>
<path d="M0 0 C0.33 1.65 0.66 3.3 1 5 C0.278125 5.55429687 -0.44375 6.10859375 -1.1875 6.6796875 C-2.115625 7.40414063 -3.04375 8.12859375 -4 8.875 C-4.928125 9.59429687 -5.85625 10.31359375 -6.8125 11.0546875 C-7.8953125 12.01761719 -7.8953125 12.01761719 -9 13 C-9 13.66 -9 14.32 -9 15 C-7.38542921 16.43581474 -5.70780925 17.80144783 -4 19.125 C-2.6078125 20.21167969 -2.6078125 20.21167969 -1.1875 21.3203125 C-0.465625 21.87460937 0.25625 22.42890625 1 23 C0.01 25.475 0.01 25.475 -1 28 C-5.22936877 25.6025612 -8.99276867 22.79759661 -12.8125 19.8125 C-13.7087207 19.11737305 -13.7087207 19.11737305 -14.62304688 18.40820312 C-16.08392019 17.27456544 -17.54222515 16.13761932 -19 15 C-7.125 0 -7.125 0 0 0 Z " fill="#AF35C3" transform="translate(354,372)"/>
<path d="M0 0 C3.84628123 1.20379794 7.49128728 2.62687052 11.15234375 4.31030273 C21.48390451 9.05484489 32.17565404 12.56292282 43 16 C42.01 16.33 41.02 16.66 40 17 C39.505 17.495 39.505 17.495 39 18 C32.22811612 20.30155531 25.14634197 16.80359458 19 14 C17.41785122 13.39273808 15.83441339 12.78882855 14.25 12.1875 C8.56617396 9.94020263 3.30205212 7.0239841 -2 4 C0 3 0 3 2 3 C1.34 2.67 0.68 2.34 0 2 C0 1.34 0 0.68 0 0 Z " fill="#7292F4" transform="translate(146,414)"/>
<path d="M0 0 C3.59757585 1.54895627 6.12532462 3.73695948 9 6.375 C9.845625 7.14585937 10.69125 7.91671875 11.5625 8.7109375 C13.75248722 10.76756012 15.89052389 12.86122561 18 15 C12.66105169 19.91706956 7.13532814 24.12281347 1 28 C0.34 27.34 -0.32 26.68 -1 26 C-0.81989343 23.18801349 -0.1133043 22.11785563 1.84765625 20.078125 C2.57855469 19.47484375 3.30945313 18.8715625 4.0625 18.25 C5.16271484 17.32960938 5.16271484 17.32960938 6.28515625 16.390625 C6.85105469 15.93171875 7.41695313 15.4728125 8 15 C7.06725891 13.87105124 6.12859878 12.74699124 5.1875 11.625 C4.66542969 10.99851562 4.14335937 10.37203125 3.60546875 9.7265625 C1.91774261 7.7778952 1.91774261 7.7778952 -1 6 C-1.25 3.4375 -1.25 3.4375 -1 1 C-0.67 0.67 -0.34 0.34 0 0 Z " fill="#B031BE" transform="translate(371,372)"/>
<path d="M0 0 C0.66 0 1.32 0 2 0 C2 0.66 2 1.32 2 2 C2.70511719 2.23460938 3.41023438 2.46921875 4.13671875 2.7109375 C7.53203191 4.23952323 9.96938922 6.22719573 12.8125 8.625 C13.78832031 9.44226563 14.76414062 10.25953125 15.76953125 11.1015625 C16.50558594 11.72804688 17.24164063 12.35453125 18 13 C13.38427208 18.95185968 8.2989904 22.90441138 2 27 C1.01 26.01 0.02 25.02 -1 24 C0.59231949 19.70073737 3.39313359 17.64994267 7 15 C7.99 15 8.98 15 10 15 C10 14.34 10 13.68 10 13 C9.41734375 12.73445313 8.8346875 12.46890625 8.234375 12.1953125 C5.93825772 10.96697004 4.19643982 9.59685061 2.25 7.875 C1.63640625 7.33617188 1.0228125 6.79734375 0.390625 6.2421875 C-0.06828125 5.83226563 -0.5271875 5.42234375 -1 5 C-0.67 3.35 -0.34 1.7 0 0 Z " fill="#5A57E4" transform="translate(105,92)"/>
<path d="M0 0 C0.99 0 1.98 0 3 0 C3.41893658 8.22163046 0.28706103 14.67865916 -3 22 C-3.28907227 22.64678711 -3.57814453 23.29357422 -3.87597656 23.95996094 C-10.10321696 37.64885594 -18.16751053 50.60365938 -28 62 C-28 57.92669931 -25.94177597 55.64296259 -23.75 52.375 C-13.30518848 36.19123931 -5.37985757 18.47556349 0 0 Z " fill="#BA40D0" transform="translate(418,300)"/>
<path d="M0 0 C0.99 0.66 1.98 1.32 3 2 C2.46324097 5.85103301 0.88399077 7.31797587 -2.0625 9.75 C-3.16271484 10.67039062 -3.16271484 10.67039062 -4.28515625 11.609375 C-4.85105469 12.06828125 -5.41695312 12.5271875 -6 13 C-4.87811441 14.14888283 -3.75238316 15.29401137 -2.625 16.4375 C-1.99851562 17.07558594 -1.37203125 17.71367188 -0.7265625 18.37109375 C0.91723061 20.07882176 0.91723061 20.07882176 3 21 C3 22.65 3 24.3 3 26 C-1.22461651 26 -1.54590163 25.95919855 -4.453125 23.375 C-5.071875 22.83359375 -5.690625 22.2921875 -6.328125 21.734375 C-6.96234375 21.16203125 -7.5965625 20.5896875 -8.25 20 C-8.8996875 19.42765625 -9.549375 18.8553125 -10.21875 18.265625 C-11.8202758 16.852514 -13.41118366 15.4273858 -15 14 C-13.92929873 10.7878962 -13.409251 10.26834536 -10.83984375 8.30078125 C-10.21142578 7.81416016 -9.58300781 7.32753906 -8.93554688 6.82617188 C-8.27619141 6.32666016 -7.61683594 5.82714844 -6.9375 5.3125 C-6.27427734 4.80138672 -5.61105469 4.29027344 -4.92773438 3.76367188 C-3.2899169 2.50290591 -1.64556863 1.25063216 0 0 Z " fill="#673FDB" transform="translate(87,92)"/>
<path d="M0 0 C1.32 0.66 2.64 1.32 4 2 C2.64285259 6.07144222 -0.08324536 7.63701845 -3.5390625 9.8515625 C-4.26222656 10.42003906 -4.26222656 10.42003906 -5 11 C-5 11.66 -5 12.32 -5 13 C-3.21387689 14.80693756 -3.21387689 14.80693756 -1 16.625 C-0.2575 17.25664063 0.485 17.88828125 1.25 18.5390625 C1.8275 19.02117187 2.405 19.50328125 3 20 C2.67 21.32 2.34 22.64 2 24 C-1.80133442 22.32076975 -4.97082702 19.88537166 -8.25 17.375 C-8.80429688 16.95476562 -9.35859375 16.53453125 -9.9296875 16.1015625 C-11.28866663 15.07061281 -12.64463835 14.03570089 -14 13 C-12.47605205 8.79467528 -9.3847135 6.74995834 -5.875 4.25 C-5.03001953 3.63318359 -5.03001953 3.63318359 -4.16796875 3.00390625 C-2.78398366 1.99523915 -1.39269459 0.99660714 0 0 Z " fill="#9360DF" transform="translate(239,93)"/>
<path d="M0 0 C6.95357232 0.86757793 13.54326817 2.30872354 20.1875 4.5 C21.17665405 4.82037231 21.17665405 4.82037231 22.18579102 5.1472168 C26.87385107 6.74770213 26.87385107 6.74770213 28 9 C26.02 9 24.04 9 22 9 C22.33 9.66 22.66 10.32 23 11 C21.07994141 10.55140625 21.07994141 10.55140625 19.12109375 10.09375 C13.28830984 8.79579848 7.40636719 7.96209858 1.49023438 7.14453125 C0.68005859 7.02464844 -0.13011719 6.90476563 -0.96484375 6.78125 C-1.6930835 6.67876953 -2.42132324 6.57628906 -3.17163086 6.47070312 C-5 6 -5 6 -7 4 C-6.67 3.34 -6.34 2.68 -6 2 C-4.02 2 -2.04 2 0 2 C0 1.34 0 0.68 0 0 Z " fill="#53DBF2" transform="translate(190,140)"/>
<path d="M0 0 C0.83071518 0.00141495 1.66143036 0.0028299 2.51731873 0.00428772 C5.1352825 0.00982455 7.75315642 0.02236463 10.37109375 0.03515625 C12.16080604 0.04017944 13.9505197 0.0447409 15.74023438 0.04882812 C20.09638808 0.05977317 24.45247575 0.07699306 28.80859375 0.09765625 C28.80859375 0.42765625 28.80859375 0.75765625 28.80859375 1.09765625 C27.69822754 1.1227124 26.58786133 1.14776855 25.44384766 1.17358398 C21.33256056 1.2676054 17.22144452 1.36783882 13.11035156 1.4699707 C11.32946772 1.51333955 9.54854177 1.55501319 7.76757812 1.5949707 C5.21080827 1.65262615 2.65425077 1.71633395 0.09765625 1.78125 C-0.70135101 1.79796249 -1.50035828 1.81467499 -2.32357788 1.83189392 C-6.38946993 1.85158616 -6.38946993 1.85158616 -10.19140625 3.09765625 C-9.86140625 4.08765625 -9.53140625 5.07765625 -9.19140625 6.09765625 C-11.77374984 6.46098599 -14.35680407 6.81360492 -16.94140625 7.16015625 C-18.03582031 7.31581055 -18.03582031 7.31581055 -19.15234375 7.47460938 C-25.93027136 8.36806347 -25.93027136 8.36806347 -29.19140625 7.09765625 C-29.52140625 6.10765625 -29.85140625 5.11765625 -30.19140625 4.09765625 C-28.38101154 3.61059574 -26.56794058 3.13348106 -24.75390625 2.66015625 C-23.74457031 2.39332031 -22.73523438 2.12648437 -21.6953125 1.8515625 C-14.49122081 0.30151825 -7.35030733 -0.0483427 0 0 Z " fill="#4491D0" transform="translate(226.19140625,49.90234375)"/>
<path d="M0 0 C7.30946591 10.96419886 5.27641015 29.13973803 5.25 41.875 C5.24913391 42.67525604 5.24826782 43.47551208 5.24737549 44.30001831 C5.24091562 46.61422255 5.22471128 48.92807841 5.203125 51.2421875 C5.1987442 51.93529526 5.1943634 52.62840302 5.18984985 53.34251404 C5.13240759 57.32113862 4.75674364 61.09420193 4 65 C3.67 65 3.34 65 3 65 C2.98018066 63.84177734 2.96036133 62.68355469 2.93994141 61.49023438 C2.86276265 57.11390648 2.77423857 52.73786374 2.68261719 48.36181641 C2.64478363 46.48264269 2.60985966 44.6034077 2.578125 42.72412109 C2.39856041 32.2139813 1.97827091 21.92875783 0.41552734 11.52539062 C-0.0439231 7.62735042 -0.06629316 3.9215369 0 0 Z " fill="#100E1D" transform="translate(428,204)"/>
<path d="M0 0 C2.93835036 1.03706483 5.27825628 2.18752054 7.875 3.9375 C10.25168006 5.50610884 12.16709313 6.5693306 14.75 7.625 C18 9 18 9 20 11 C19.67 11.66 19.34 12.32 19 13 C19.99 13.33 20.98 13.66 22 14 C21.67 14.66 21.34 15.32 21 16 C13.4837069 14.17689912 7.45203129 11.24186738 1 7 C1.33 6.34 1.66 5.68 2 5 C1.34 4.67 0.68 4.34 0 4 C0 2.68 0 1.36 0 0 Z " fill="#4997E5" transform="translate(127,403)"/>
<path d="M0 0 C0.66 0.33 1.32 0.66 2 1 C2.33 0.67 2.66 0.34 3 0 C3.99 0.33 4.98 0.66 6 1 C6.66 0.67 7.32 0.34 8 0 C7.51171875 6.0546875 7.51171875 6.0546875 7 8 C4 10 4 10 1.75 9.6875 C0.8425 9.460625 -0.065 9.23375 -1 9 C-3.33177975 8.65596692 -5.66487041 8.32050798 -8 8 C-7.34 6.35 -6.68 4.7 -6 3 C-5.01 3 -4.02 3 -3 3 C-3 2.34 -3 1.68 -3 1 C-2.01 0.67 -1.02 0.34 0 0 Z " fill="#5276E8" transform="translate(141,286)"/>
<path d="M0 0 C0.66 0 1.32 0 2 0 C2 0.66 2 1.32 2 2 C2.72574219 2.25523438 3.45148438 2.51046875 4.19921875 2.7734375 C7.1552984 4.06801074 9.30564666 5.60455104 11.8125 7.625 C12.60269531 8.25664063 13.39289063 8.88828125 14.20703125 9.5390625 C15.09455078 10.26222656 15.09455078 10.26222656 16 11 C14 12 14 12 11 12 C11.33 12.66 11.66 13.32 12 14 C6.59510481 12.47987323 3.01507372 8.72614782 -1 5 C-0.67 3.35 -0.34 1.7 0 0 Z " fill="#516EDC" transform="translate(105,92)"/>
<path d="M0 0 C1.06347656 0.04833984 2.12695312 0.09667969 3.22265625 0.14648438 C4.31707031 0.20255859 5.41148437 0.25863281 6.5390625 0.31640625 C8.21548828 0.3947168 8.21548828 0.3947168 9.92578125 0.47460938 C12.67219742 0.60371441 15.41819672 0.73865529 18.1640625 0.87890625 C17.1740625 2.36390625 17.1740625 2.36390625 16.1640625 3.87890625 C13.73388672 4.21948242 13.73388672 4.21948242 10.71875 4.171875 C9.64238281 4.16220703 8.56601563 4.15253906 7.45703125 4.14257812 C6.32910156 4.11744141 5.20117188 4.09230469 4.0390625 4.06640625 C2.90339844 4.05287109 1.76773438 4.03933594 0.59765625 4.02539062 C-2.21401137 3.98994944 -5.02474167 3.94054142 -7.8359375 3.87890625 C-7.8359375 3.21890625 -7.8359375 2.55890625 -7.8359375 1.87890625 C-9.1559375 1.54890625 -10.4759375 1.21890625 -11.8359375 0.87890625 C-7.7885129 0.09934393 -4.11388101 -0.19905876 0 0 Z " fill="#44BDF1" transform="translate(223.8359375,51.12109375)"/>
<path d="M0 0 C0.81976318 0.08564209 1.63952637 0.17128418 2.48413086 0.25952148 C24.7056157 2.58295617 24.7056157 2.58295617 47 4 C47 4.33 47 4.66 47 5 C12.09794343 5.61916858 12.09794343 5.61916858 -1 2 C-0.67 1.34 -0.34 0.68 0 0 Z " fill="#1D1C37" transform="translate(194,436)"/>
<path d="M0 0 C0.33 0.66 0.66 1.32 1 2 C0.07543945 3.90429688 0.07543945 3.90429688 -1.38671875 6.21875 C-1.91330078 7.06953125 -2.43988281 7.9203125 -2.98242188 8.796875 C-4.09948016 10.56778985 -5.21666303 12.33862611 -6.33398438 14.109375 C-9.90793196 19.88300738 -12.70402189 25.60731029 -15 32 C-15.99 31.67 -16.98 31.34 -18 31 C-14.88624221 20.7518069 -7.66631971 7.66631971 0 0 Z " fill="#5D7CCF" transform="translate(72,135)"/>
<path d="M0 0 C0.66 0.33 1.32 0.66 2 1 C1.67 1.99 1.34 2.98 1 4 C-0.93359375 4.95703125 -0.93359375 4.95703125 -3.4375 5.8125 C-8.24091165 7.59917672 -12.38576945 9.90103144 -16.7265625 12.60546875 C-19.41617913 14.25528514 -22.15061129 15.65028956 -25 17 C-25 16.34 -25 15.68 -25 15 C-22.9246632 13.48515562 -20.86452332 12.10487951 -18.6875 10.75 C-17.74148926 10.15372803 -17.74148926 10.15372803 -16.77636719 9.54541016 C-4.69417258 1.9993698 -4.69417258 1.9993698 0 0 Z " fill="#44A7E0" transform="translate(149,70)"/>
<path d="M0 0 C0 0.99 0 1.98 0 3 C-2.22687976 4.29574871 -4.45633175 5.58667308 -6.6875 6.875 C-7.31333984 7.23980469 -7.93917969 7.60460937 -8.58398438 7.98046875 C-11.98194942 9.93741197 -15.30067619 11.65607739 -19 13 C-19.33 12.01 -19.66 11.02 -20 10 C-19.47792969 9.78085937 -18.95585937 9.56171875 -18.41796875 9.3359375 C-12.06166022 6.59749284 -6.0341695 3.38364645 0 0 Z " fill="#A142C5" transform="translate(331,410)"/>
<path d="M0 0 C0.33 0.99 0.66 1.98 1 3 C-0.45647257 5.55923037 -1.9462404 7.90658965 -3.625 10.3125 C-4.06457031 10.96412109 -4.50414062 11.61574219 -4.95703125 12.28710938 C-7.76038307 16.39348543 -10.76089235 20.22883676 -14 24 C-14 20.74146087 -13.58948998 19.99094155 -11.8828125 17.34765625 C-11.21958984 16.30641602 -11.21958984 16.30641602 -10.54296875 15.24414062 C-9.84107422 14.16422852 -9.84107422 14.16422852 -9.125 13.0625 C-8.20935439 11.63773492 -7.2952414 10.21198347 -6.3828125 8.78515625 C-5.77010498 7.83974976 -5.77010498 7.83974976 -5.14501953 6.87524414 C-3.94730568 4.98945766 -3.94730568 4.98945766 -2.97607422 2.82592773 C-2 1 -2 1 0 0 Z " fill="#B03ECB" transform="translate(404,338)"/>
<path d="M0 0 C0 0.33 0 0.66 0 1 C-3.35296491 1.50828443 -6.70753343 2.00511457 -10.0625 2.5 C-11.47692383 2.71462891 -11.47692383 2.71462891 -12.91992188 2.93359375 C-18.00732242 3.67809139 -22.8587994 4.17113566 -28 4 C-23.44232455 1.72116227 -19.93598774 0.59319868 -14.8125 -0.125 C-12.87310547 -0.40730469 -12.87310547 -0.40730469 -10.89453125 -0.6953125 C-6.93382075 -1.00517751 -3.8753639 -0.71375055 0 0 Z " fill="#18182F" transform="translate(276,431)"/>
<path d="M0 0 C0.33 0.99 0.66 1.98 1 3 C-3.84241633 4.33583899 -7.93437617 5.25328119 -13 5 C-13.33 4.01 -13.66 3.02 -14 2 C-4.58997722 -0.29612756 -4.58997722 -0.29612756 0 0 Z " fill="#48B3F0" transform="translate(197,55)"/>
<path d="M0 0 C1.67542976 0.28604898 3.34385343 0.61781233 5 1 C5.33 2.32 5.66 3.64 6 5 C4.68 5.99 3.36 6.98 2 8 C0.68 7.34 -0.64 6.68 -2 6 C-1.125 1.125 -1.125 1.125 0 0 Z " fill="#9162E1" transform="translate(261,101)"/>
<path d="M0 0 C3.69230769 0.69230769 3.69230769 0.69230769 5 2 C5.04063832 3.66617115 5.042721 5.33388095 5 7 C2.625 7.625 2.625 7.625 0 8 C-0.66 7.34 -1.32 6.68 -2 6 C-1.44444444 1.44444444 -1.44444444 1.44444444 0 0 Z " fill="#723DD0" transform="translate(179,385)"/>
<path d="M0 0 C2.5 0.125 2.5 0.125 3.5 1.125 C3.625 3.625 3.625 3.625 3.5 6.125 C2.5 7.125 2.5 7.125 0 7.25 C-2.5 7.125 -2.5 7.125 -3.5 6.125 C-3.625 3.625 -3.625 3.625 -3.5 1.125 C-2.5 0.125 -2.5 0.125 0 0 Z " fill="#6F3EDE" transform="translate(208.5,385.875)"/>
<path d="M0 0 C0.78375 0.04125 1.5675 0.0825 2.375 0.125 C3 2.5 3 2.5 3.375 5.125 C2.715 5.785 2.055 6.445 1.375 7.125 C-1.25 6.75 -1.25 6.75 -3.625 6.125 C-4.25 4.25 -4.25 4.25 -4.625 2.125 C-2.625 0.125 -2.625 0.125 0 0 Z " fill="#6A3DD7" transform="translate(77.625,216.875)"/>
<path d="M0 0 C3.28731688 1.09577229 3.88003756 1.77804601 6 4.375 C10.67669702 9.90657712 15.84068616 14.9246533 21 20 C20.67 20.66 20.34 21.32 20 22 C17.1453424 19.19469153 14.29722769 16.38292304 11.45507812 13.56494141 C10.48681462 12.60675044 9.51676574 11.65036018 8.54492188 10.69580078 C7.1502903 9.3253618 5.76253479 7.94793633 4.375 6.5703125 C3.53710938 5.74289551 2.69921875 4.91547852 1.8359375 4.06298828 C0 2 0 2 0 0 Z " fill="#4DC5EA" transform="translate(84,365)"/>
<path d="M0 0 C0.66 0.33 1.32 0.66 2 1 C-0.33632598 4.79553299 -2.50168374 5.87114288 -6.6875 7.25 C-8.17830078 7.75273438 -8.17830078 7.75273438 -9.69921875 8.265625 C-10.83810547 8.62914063 -10.83810547 8.62914063 -12 9 C-11.83984375 7.17578125 -11.83984375 7.17578125 -11 5 C-8.56640625 3.48046875 -8.56640625 3.48046875 -5.5625 2.1875 C-4.57378906 1.74792969 -3.58507812 1.30835937 -2.56640625 0.85546875 C-1.71949219 0.57316406 -0.87257812 0.29085937 0 0 Z " fill="#43AEE8" transform="translate(162,64)"/>
<path d="M0 0 C2.125 0.9375 2.125 0.9375 4 2 C4 3.65 4 5.3 4 7 C2.1875 7.625 2.1875 7.625 0 8 C-0.99 7.34 -1.98 6.68 -3 6 C-2.625 3.5625 -2.625 3.5625 -2 1 C-1.34 0.67 -0.68 0.34 0 0 Z " fill="#AB32C0" transform="translate(254,385)"/>
<path d="M0 0 C0.33 0 0.66 0 1 0 C1.10466648 8.07094823 1.03387512 15.9874678 0 24 C-2 22 -2 22 -2.25 18.1875 C-2.12966593 12.0504626 -1.04487674 6.036029 0 0 Z " fill="#181930" transform="translate(43,209)"/>
<path d="M0 0 C0.66 0.33 1.32 0.66 2 1 C-2.95389816 6.43983912 -7.98878838 11.38180966 -15 14 C-17.76953125 14.125 -17.76953125 14.125 -20 14 C-17.10585743 12.07057162 -14.15587854 10.39189678 -11.125 8.6875 C-6.76104197 6.16211025 -3.25612828 3.83757976 0 0 Z " fill="#5066D1" transform="translate(217,288)"/>
<path d="M0 0 C8.19256018 0.35010941 8.19256018 0.35010941 11.5625 3.0625 C12.036875 3.701875 12.51125 4.34125 13 5 C12.67 5.66 12.34 6.32 12 7 C7.39104317 5.68315519 3.85859765 3.84801255 0 1 C0 0.67 0 0.34 0 0 Z " fill="#4CBFF3" transform="translate(314,69)"/>
<path d="M0 0 C0.33 0 0.66 0 1 0 C1.20461175 3.82623969 0.642375 6.43203147 -0.875 9.9375 C-2.41341939 13.5871545 -3.80614759 17.21946737 -5 21 C-5.33 21 -5.66 21 -6 21 C-5.60983685 13.19673706 -3.24226342 7.07076635 0 0 Z " fill="#151528" transform="translate(50,169)"/>
<path d="M0 0 C0.33 0 0.66 0 1 0 C0.67 6.6 0.34 13.2 0 20 C-0.66 20 -1.32 20 -2 20 C-2.0544452 17.79194476 -2.09299283 15.58349446 -2.125 13.375 C-2.14820312 12.14523437 -2.17140625 10.91546875 -2.1953125 9.6484375 C-2.0030428 6.05683959 -1.30258556 3.33338825 0 0 Z " fill="#1B1C36" transform="translate(103,334)"/>
<path d="M0 0 C1.96276436 2.94414653 2.71733962 5.05898636 3.625 8.4375 C3.88539063 9.38496094 4.14578125 10.33242187 4.4140625 11.30859375 C5 14 5 14 5 18 C4.34 18 3.68 18 3 18 C2.30391966 15.37700199 1.61784618 12.7520793 0.9375 10.125 C0.73833984 9.37863281 0.53917969 8.63226563 0.33398438 7.86328125 C-1.11328125 2.2265625 -1.11328125 2.2265625 0 0 Z " fill="#141325" transform="translate(417,188)"/>
<path d="M0 0 C7.50769231 0.61538462 7.50769231 0.61538462 10 2.5625 C10.33 3.036875 10.66 3.51125 11 4 C7.72814447 5.07310858 5.57052408 4.89263102 2.25 4.0625 C1.45078125 3.86785156 0.6515625 3.67320312 -0.171875 3.47265625 C-0.77515625 3.31667969 -1.3784375 3.16070312 -2 3 C-1.34 2.01 -0.68 1.02 0 0 Z " fill="#5C77E2" transform="translate(174,428)"/>
<path d="M0 0 C1.67542976 0.28604898 3.34385343 0.61781233 5 1 C4.67 2.65 4.34 4.3 4 6 C2.68 6 1.36 6 0 6 C-0.38218767 4.34385343 -0.71395102 2.67542976 -1 1 C-0.67 0.67 -0.34 0.34 0 0 Z " fill="#693CD4" transform="translate(75,240)"/>
<path d="M0 0 C1.79206547 0.14084796 3.58364917 0.28783701 5.375 0.4375 C6.87160156 0.55931641 6.87160156 0.55931641 8.3984375 0.68359375 C11 1 11 1 13 2 C13 2.66 13 3.32 13 4 C13.66 4 14.32 4 15 4 C14.67 4.66 14.34 5.32 14 6 C9.38 4.68 4.76 3.36 0 2 C0 1.34 0 0.68 0 0 Z " fill="#42DDF7" transform="translate(276,56)"/>
<path d="M0 0 C1.65 0.33 3.3 0.66 5 1 C5 2.65 5 4.3 5 6 C3.125 6.625 3.125 6.625 1 7 C0.34 6.34 -0.32 5.68 -1 5 C-0.625 2.375 -0.625 2.375 0 0 Z " fill="#6F3CD5" transform="translate(75,196)"/>
<path d="M0 0 C0.33 0 0.66 0 1 0 C1 1.65 1 3.3 1 5 C1.66 5 2.32 5 3 5 C3 9.95 3 14.9 3 20 C2.67 20 2.34 20 2 20 C-0.29612756 6.3667426 -0.29612756 6.3667426 0 0 Z " fill="#1E203C" transform="translate(41,258)"/>
<path d="M0 0 C1.15957207 3.47871621 0.77456651 4.34219645 -0.4375 7.6875 C-0.72496094 8.49574219 -1.01242188 9.30398437 -1.30859375 10.13671875 C-1.53675781 10.75160156 -1.76492187 11.36648437 -2 12 C-2.99 12 -3.98 12 -5 12 C-5 9.1130713 -4.6148948 7.53105435 -3.625 4.875 C-3.36976562 4.17117187 -3.11453125 3.46734375 -2.8515625 2.7421875 C-2 1 -2 1 0 0 Z " fill="#6689E3" transform="translate(55,165)"/>
<path d="M0 0 C1.65 0.33 3.3 0.66 5 1 C4.67 2.65 4.34 4.3 4 6 C2.35 5.67 0.7 5.34 -1 5 C-0.67 3.35 -0.34 1.7 0 0 Z " fill="#6E3DE9" transform="translate(293,101)"/>
<path d="M0 0 C0.33 0.66 0.66 1.32 1 2 C-0.9363704 2.50435694 -2.87414146 3.00333874 -4.8125 3.5 C-5.89144531 3.7784375 -6.97039062 4.056875 -8.08203125 4.34375 C-11 5 -11 5 -14 5 C-14 4.34 -14 3.68 -14 3 C-4.58997722 -0.44419134 -4.58997722 -0.44419134 0 0 Z " fill="#141527" transform="translate(191,54)"/>
<path d="M0 0 C0 0.66 0 1.32 0 2 C-1.76949612 2.50471197 -3.54065223 3.00360685 -5.3125 3.5 C-6.79169922 3.91765625 -6.79169922 3.91765625 -8.30078125 4.34375 C-11 5 -11 5 -14 5 C-14 4.34 -14 3.68 -14 3 C-12.23050388 2.49528803 -10.45934777 1.99639315 -8.6875 1.5 C-7.70136719 1.2215625 -6.71523438 0.943125 -5.69921875 0.65625 C-3 0 -3 0 0 0 Z " fill="#141427" transform="translate(291,426)"/>
<path d="M0 0 C2.0625 0.4375 2.0625 0.4375 4 1 C4.33 2.32 4.66 3.64 5 5 C3.35 5.33 1.7 5.66 0 6 C-0.38218767 4.34385343 -0.71395102 2.67542976 -1 1 C-0.67 0.67 -0.34 0.34 0 0 Z " fill="#6E41DA" transform="translate(316,101)"/>
<path d="M0 0 C3.39192363 0.59283621 5.2107757 1.76743189 7.75 4.0625 C8.67039062 4.88427734 8.67039062 4.88427734 9.609375 5.72265625 C10.29773438 6.35494141 10.29773438 6.35494141 11 7 C10.34 8.65 9.68 10.3 9 12 C8.34 11.34 7.68 10.68 7 10 C7.33 9.01 7.66 8.02 8 7 C7.13375 6.36771484 7.13375 6.36771484 6.25 5.72265625 C5.5075 5.17480469 4.765 4.62695312 4 4.0625 C3.2575 3.51722656 2.515 2.97195313 1.75 2.41015625 C1.1725 1.94480469 0.595 1.47945313 0 1 C0 0.67 0 0.34 0 0 Z " fill="#B141CD" transform="translate(344,388)"/>
<path d="M0 0 C3.81684226 1.55500981 6.19195732 4.03595495 9 7 C7.68 8.32 6.36 9.64 5 11 C4.01 10.67 3.02 10.34 2 10 C2.99 9.67 3.98 9.34 5 9 C4.42647107 5.12867972 2.51295648 2.91827204 0 0 Z " fill="#BF40D3" transform="translate(380,380)"/>
<path d="M0 0 C0.66 0 1.32 0 2 0 C3.98 3.96 5.96 7.92 8 12 C7.34 12.66 6.68 13.32 6 14 C4.99515796 12.04414675 3.99626195 10.08523763 3 8.125 C2.1646875 6.48917969 2.1646875 6.48917969 1.3125 4.8203125 C0 2 0 2 0 0 Z " fill="#4BB2DA" transform="translate(52,322)"/>
<path d="M0 0 C0.33 0 0.66 0 1 0 C1.33951619 1.56116819 1.67132544 3.12401338 2 4.6875 C2.185625 5.55761719 2.37125 6.42773438 2.5625 7.32421875 C2.98972047 9.93712964 3.07616201 12.35813038 3 15 C2.34 15 1.68 15 1 15 C0.63355422 13.44033408 0.28239138 11.87707349 -0.0625 10.3125 C-0.25972656 9.44238281 -0.45695312 8.57226562 -0.66015625 7.67578125 C-1.02032279 4.83998724 -0.70909969 2.75210018 0 0 Z " fill="#1A1B33" transform="translate(38,276)"/>
<path d="M0 0 C0.33 0 0.66 0 1 0 C2.86783046 5.48675196 3.2358396 10.22192976 3 16 C2.34 16 1.68 16 1 16 C0.67 10.72 0.34 5.44 0 0 Z " fill="#15192C" transform="translate(101,138)"/>
<path d="M0 0 C0.99 0.33 1.98 0.66 3 1 C0.59310197 3.72675159 -1.92471023 5.11966596 -5.1875 6.6875 C-6.08855469 7.12449219 -6.98960938 7.56148438 -7.91796875 8.01171875 C-8.60503906 8.33785156 -9.29210937 8.66398437 -10 9 C-10 8.34 -10 7.68 -10 7 C-7.91796875 5.23828125 -7.91796875 5.23828125 -5.1875 3.3125 C-4.29417969 2.66925781 -3.40085938 2.02601562 -2.48046875 1.36328125 C-1.25263672 0.68845703 -1.25263672 0.68845703 0 0 Z " fill="#578ECE" transform="translate(134,78)"/>
<path d="M0 0 C2.54131358 2.30283254 4.07110295 4.67313793 5.6875 7.6875 C6.12449219 8.49574219 6.56148438 9.30398438 7.01171875 10.13671875 C7.33785156 10.75160156 7.66398437 11.36648438 8 12 C7.01 12 6.02 12 5 12 C4.15885829 10.56705502 3.32734313 9.12845595 2.5 7.6875 C1.80390625 6.48673828 1.80390625 6.48673828 1.09375 5.26171875 C0 3 0 3 0 0 Z " fill="#48CDEE" transform="translate(59,334)"/>
<path d="M0 0 C3.3 0.33 6.6 0.66 10 1 C6 4 6 4 3.75 3.6875 C3.1725 3.460625 2.595 3.23375 2 3 C2 2.34 2 1.68 2 1 C1.34 0.67 0.68 0.34 0 0 Z M4 4 C4.66 4.33 5.32 4.66 6 5 C4.68 5.33 3.36 5.66 2 6 C2.66 5.34 3.32 4.68 4 4 Z " fill="#4CBFE4" transform="translate(256,51)"/>
<path d="M0 0 C1.485 0.99 1.485 0.99 3 2 C3 2.66 3 3.32 3 4 C3.66 4 4.32 4 5 4 C6.38232443 5.62626404 7.71937515 7.2925002 9 9 C8.67 9.66 8.34 10.32 8 11 C6.65772182 9.73861805 5.32641323 8.46555441 4 7.1875 C3.2575 6.47980469 2.515 5.77210938 1.75 5.04296875 C0 3 0 3 0 0 Z " fill="#49C1E7" transform="translate(86,372)"/>
<path d="M0 0 C0.66 0.99 1.32 1.98 2 3 C1.5390625 5.26171875 1.5390625 5.26171875 0.625 7.6875 C0.18027344 8.89986328 0.18027344 8.89986328 -0.2734375 10.13671875 C-0.51320312 10.75160156 -0.75296875 11.36648437 -1 12 C-1.66 12 -2.32 12 -3 12 C-2.49202991 7.6822542 -1.80317221 3.96697886 0 0 Z " fill="#151528" transform="translate(53,173)"/>
<path d="M0 0 C1.32 0.66 2.64 1.32 4 2 C3.67 2.99 3.34 3.98 3 5 C0.52260646 5.90837763 -1.33579484 6 -4 6 C-2.68 4.02 -1.36 2.04 0 0 Z " fill="#A552D4" transform="translate(239,93)"/>
<path d="M0 0 C0.66 0.66 1.32 1.32 2 2 C-2.68965706 3.11658501 -5.53763531 2.80619523 -10 1 C-10 0.67 -10 0.34 -10 0 C-3.42391304 -1.3451087 -3.42391304 -1.3451087 0 0 Z " fill="#429ADB" transform="translate(184,59)"/>
<path d="M0 0 C1.65 0 3.3 0 5 0 C5.33 0.99 5.66 1.98 6 3 C3.36 3.33 0.72 3.66 -2 4 C-1.34 2.68 -0.68 1.36 0 0 Z " fill="#50A9F3" transform="translate(192,55)"/>
<path d="M0 0 C1.43739513 -0.02712066 2.87493863 -0.04645067 4.3125 -0.0625 C5.51326172 -0.07990234 5.51326172 -0.07990234 6.73828125 -0.09765625 C9 0 9 0 12 1 C12 1.66 12 2.32 12 3 C3.96428571 2.19642857 3.96428571 2.19642857 0 0 Z " fill="#1C1F39" transform="translate(183,428)"/>
<path d="M0 0 C0.90492188 0.02320313 1.80984375 0.04640625 2.7421875 0.0703125 C4.10730469 0.09738281 4.10730469 0.09738281 5.5 0.125 C6.19867188 0.14820313 6.89734375 0.17140625 7.6171875 0.1953125 C7.6171875 0.5253125 7.6171875 0.8553125 7.6171875 1.1953125 C3.15482281 3.00150773 0.30684456 3.31189751 -4.3828125 2.1953125 C-2.3828125 0.1953125 -2.3828125 0.1953125 0 0 Z " fill="#40B7E9" transform="translate(239.3828125,143.8046875)"/>
</svg>
